# Blender 4.5.2 LTS
# www.blender.org
mtllib frame.mtl
o Plane
v -3.834628 -2.217897 0.135818
v -3.632090 -2.015359 -0.001385
v -3.609223 -1.992492 -0.220801
v -3.829857 2.218854 0.136108
v -3.627319 2.016316 -0.001095
v 3.835187 2.218854 0.136108
v 3.632649 2.016316 -0.001095
v 3.650282 2.005718 -0.223050
v 3.608762 1.991704 -0.213603
v 3.829396 -2.219642 0.143305
v 3.626858 -2.017104 0.006102
v -3.650743 -2.006505 -0.215853
v -4.072580 -2.474885 -0.220783
v -4.091594 -2.455849 -0.220800
v -4.082093 -2.472333 -0.220792
v -4.089053 -2.465365 -0.220798
v -4.043700 -2.404077 -0.103742
v -4.020800 -2.426978 -0.103722
v -4.040631 -2.415524 -0.103740
v -4.032249 -2.423906 -0.103732
v -4.043566 -2.449841 -0.115699
v -4.066545 -2.426828 -0.115719
v -4.079968 -2.463236 -0.117469
v -4.055064 -2.446756 -0.115710
v -4.063475 -2.438333 -0.115717
v -4.072580 -2.474885 -0.138002
v -4.072734 -2.456003 -0.116525
v -4.091594 -2.455848 -0.138018
v -4.072632 -2.472093 -0.128314
v -4.081918 -2.472059 -0.138007
v -4.081655 -2.469969 -0.128688
v -4.081976 -2.455951 -0.120545
v -4.072688 -2.465256 -0.120537
v -4.081666 -2.464938 -0.123212
v -4.088778 -2.465190 -0.138013
v -4.088805 -2.455895 -0.128328
v -4.086692 -2.464925 -0.128692
v -4.024077 -2.384710 -0.089586
v -4.001444 -2.407373 -0.089566
v -4.021053 -2.396039 -0.089583
v -4.012769 -2.404335 -0.089576
v -3.981101 -2.386683 -0.071054
v -4.003387 -2.364367 -0.071074
v -3.992253 -2.383692 -0.071065
v -4.000410 -2.375524 -0.071072
v -3.964059 -2.369261 -0.050365
v -3.985965 -2.347326 -0.050385
v -3.975020 -2.366321 -0.050375
v -3.983038 -2.358292 -0.050382
v -3.948130 -2.352927 -0.028587
v -3.969632 -2.331398 -0.028606
v -3.958889 -2.350041 -0.028597
v -3.966759 -2.342161 -0.028604
v -3.932143 -2.336594 0.005169
v -3.953298 -2.315412 0.005150
v -3.942729 -2.333754 0.005159
v -3.950472 -2.326001 0.005152
v -3.925827 -2.330060 0.037836
v -3.946765 -2.309096 0.037817
v -3.936304 -2.327249 0.037826
v -3.943967 -2.319576 0.037819
v -3.925676 -2.329835 0.042779
v -3.926660 -2.309929 0.061772
v -3.946540 -2.308945 0.042761
v -3.925993 -2.326590 0.052102
v -3.935909 -2.326719 0.043097
v -3.935573 -2.324249 0.051920
v -3.936116 -2.309612 0.058956
v -3.926349 -2.319398 0.058964
v -3.935647 -2.318920 0.056872
v -3.943437 -2.319181 0.043091
v -3.943299 -2.309256 0.052087
v -3.940971 -2.318843 0.051916
v -3.881789 -2.286242 0.080260
v -3.902948 -2.266030 0.080239
v -3.926623 -2.309892 0.061772
v -3.891795 -2.282842 0.081827
v -3.896014 -2.291286 0.071235
v -3.900792 -2.288047 0.072086
v -3.908003 -2.279961 0.071223
v -3.899438 -2.275533 0.081817
v -3.904659 -2.284394 0.072078
v -3.912384 -2.299921 0.064484
v -3.916647 -2.295975 0.064480
v -3.908896 -2.292347 0.066642
v -3.880898 -2.285414 0.083571
v -3.902120 -2.265177 0.083552
v -3.891517 -2.282701 0.083561
v -3.899284 -2.275294 0.083554
v -3.867672 -2.272352 0.108616
v -3.873708 -2.232515 0.119825
v -3.897877 -2.260890 0.091722
v -3.870372 -2.261065 0.114246
v -3.879769 -2.270976 0.105505
v -3.880345 -2.263881 0.109161
v -3.882491 -2.241512 0.111878
v -3.872580 -2.246510 0.118348
v -3.881229 -2.254487 0.111259
v -3.890760 -2.266801 0.099353
v -3.891334 -2.251894 0.101596
v -3.887026 -2.260964 0.105155
v -3.860736 -2.219552 0.129287
v -3.839239 -2.244035 0.129306
v -3.847510 -2.230779 0.132598
v -3.857866 -2.231792 0.129289
v -3.849997 -2.240754 0.129296
v -3.778471 -2.186324 0.134754
v -3.803023 -2.161707 0.134731
v -3.816503 -2.199772 0.135193
v -3.790757 -2.183024 0.134742
v -3.799743 -2.174014 0.134734
v -3.752360 -2.160190 0.119509
v -3.776889 -2.135596 0.119486
v -3.764635 -2.156893 0.119497
v -3.773613 -2.147891 0.119489
v -3.748551 -2.156361 0.116355
v -3.731635 -2.134612 0.086595
v -3.751313 -2.114893 0.086568
v -3.773078 -2.131805 0.116348
v -3.743187 -2.148164 0.107868
v -3.757404 -2.149626 0.113769
v -3.752550 -2.143140 0.106478
v -3.740469 -2.130878 0.084541
v -3.737000 -2.140208 0.096983
v -3.746794 -2.136786 0.096589
v -3.756914 -2.120258 0.096962
v -3.747595 -2.123737 0.084532
v -3.753506 -2.130062 0.096582
v -3.766352 -2.140668 0.113767
v -3.764875 -2.126444 0.107855
v -3.759863 -2.135816 0.106473
v -3.730013 -2.132971 0.082481
v -3.749693 -2.113277 0.082462
v -3.739853 -2.130329 0.082471
v -3.747056 -2.123121 0.082464
v -3.729848 -2.132785 0.080716
v -3.728739 -2.112008 0.061772
v -3.749507 -2.113113 0.080700
v -3.729490 -2.129026 0.071433
v -3.739424 -2.129791 0.080018
v -3.738502 -2.126848 0.071464
v -3.738234 -2.112358 0.064570
v -3.729089 -2.121506 0.064578
v -3.738128 -2.121398 0.066626
v -3.746519 -2.122691 0.080012
v -3.745750 -2.112758 0.071418
v -3.743576 -2.121771 0.071460
v -3.670370 -2.076402 0.044339
v -3.693097 -2.053614 0.044308
v -3.719467 -2.102736 0.061772
v -3.680451 -2.071970 0.041873
v -3.686036 -2.082845 0.052852
v -3.691344 -2.078970 0.051685
v -3.699555 -2.069296 0.052834
v -3.688686 -2.063713 0.041862
v -3.695693 -2.074612 0.051679
v -3.703978 -2.092469 0.059222
v -3.709193 -2.087247 0.059215
v -3.700679 -2.083951 0.057111
v -3.663687 -2.069810 0.029128
v -3.686509 -2.046935 0.029106
v -3.675108 -2.066743 0.029117
v -3.683461 -2.058370 0.029109
v -3.642789 -2.049126 0.011705
v -3.665847 -2.026048 0.011682
v -3.654318 -2.046031 0.011693
v -3.662758 -2.037583 0.011685
v -3.642952 -2.003060 0.000795
v -3.619819 -2.026254 0.000817
v -3.632125 -2.015394 -0.001378
v -3.639863 -2.014655 0.000797
v -3.631396 -2.023144 0.000805
v -3.523767 -1.926077 -0.020397
v -3.542799 -1.907036 -0.020417
v -3.561746 -1.945015 -0.001385
v -3.533109 -1.923248 -0.020403
v -3.535866 -1.928857 -0.011105
v -3.539615 -1.926045 -0.011396
v -3.545584 -1.919137 -0.011115
v -3.539975 -1.916378 -0.020410
v -3.542774 -1.922886 -0.011399
v -3.549706 -1.935759 -0.004177
v -3.552489 -1.932977 -0.004180
v -3.545976 -1.929246 -0.006288
v -3.542775 -1.907036 -0.045508
v -3.523767 -1.926072 -0.045490
v -3.561866 -1.945040 -0.063912
v -3.539963 -1.916378 -0.045502
v -3.545589 -1.919110 -0.054717
v -3.542781 -1.922877 -0.054445
v -3.535888 -1.928859 -0.054709
v -3.533105 -1.923246 -0.045496
v -3.539628 -1.926045 -0.054443
v -3.552545 -1.932957 -0.061423
v -3.549769 -1.935770 -0.061421
v -3.546007 -1.929240 -0.059452
v -3.609223 -1.992492 -0.083574
v -3.590173 -1.973441 -0.064542
v -3.606670 -1.989939 -0.074058
v -3.599698 -1.982966 -0.067092
v -4.020840 2.429506 -0.103741
v -4.043700 2.406559 -0.103742
v -4.032269 2.426434 -0.103742
v -4.040637 2.418035 -0.103742
v -3.873001 2.236419 0.118788
v -3.867897 2.274881 0.108597
v -3.895121 2.263078 0.090550
v -3.872012 2.250074 0.117433
v -3.881729 2.244874 0.111173
v -3.880652 2.257581 0.110642
v -3.879583 2.273686 0.104727
v -3.870144 2.264130 0.113701
v -3.879965 2.266760 0.108530
v -3.889817 2.254622 0.100847
v -3.889469 2.269391 0.098164
v -3.886198 2.263727 0.104457
v -3.730473 2.135500 0.082463
v -3.749693 2.115969 0.082462
v -3.740083 2.132885 0.082462
v -3.747118 2.125735 0.082462
v -3.730291 2.135314 0.080701
v -3.749508 2.115798 0.080700
v -3.728143 2.115150 0.061881
v -3.739645 2.132353 0.080018
v -3.729588 2.131639 0.071425
v -3.738538 2.129479 0.071465
v -3.745669 2.115593 0.071443
v -3.746582 2.125310 0.080017
v -3.743558 2.124475 0.071480
v -3.728811 2.124339 0.064620
v -3.737940 2.115359 0.064632
v -3.738005 2.124164 0.066654
v -3.665847 2.028693 0.011683
v -3.642987 2.051652 0.011683
v -3.662784 2.040175 0.011683
v -3.654417 2.048579 0.011683
v -3.541359 1.909093 -0.020362
v -3.522269 1.928126 -0.020410
v -3.561401 1.947913 -0.001321
v -3.538501 1.918428 -0.020705
v -3.544798 1.921577 -0.011075
v -3.541929 1.925245 -0.011493
v -3.534606 1.931195 -0.011109
v -3.531613 1.925295 -0.020722
v -3.538628 1.928373 -0.011509
v -3.552109 1.935733 -0.004134
v -3.548870 1.938406 -0.004149
v -3.545339 1.931800 -0.006286
v -4.086859 2.456806 -0.220512
v -4.067809 2.475838 -0.220511
v -4.084300 2.466321 -0.220512
v -4.077327 2.473288 -0.220511
v -4.061818 2.427715 -0.115432
v -4.038905 2.450793 -0.115431
v -4.075196 2.464193 -0.117179
v -4.058740 2.439254 -0.115432
v -4.050354 2.447701 -0.115431
v -4.086858 2.456806 -0.137731
v -4.067976 2.456973 -0.116237
v -4.067808 2.475838 -0.137730
v -4.084067 2.456862 -0.128040
v -4.084026 2.466147 -0.137731
v -4.081937 2.465885 -0.128407
v -4.067922 2.466218 -0.120257
v -4.077230 2.456923 -0.120258
v -4.076907 2.465901 -0.122928
v -4.077153 2.473014 -0.137730
v -4.067862 2.473048 -0.128039
v -4.076890 2.470927 -0.128407
v -3.996693 2.408325 -0.089297
v -4.019351 2.385657 -0.089299
v -4.008013 2.405288 -0.089298
v -4.016306 2.396991 -0.089298
v -3.998661 2.365320 -0.070787
v -3.976346 2.387636 -0.070786
v -3.995663 2.376478 -0.070786
v -3.987495 2.384646 -0.070786
v -3.981238 2.348281 -0.050098
v -3.959301 2.370213 -0.050096
v -3.978291 2.359247 -0.050097
v -3.970262 2.367275 -0.050096
v -3.964904 2.332354 -0.028319
v -3.943370 2.353879 -0.028318
v -3.962011 2.343117 -0.028319
v -3.954129 2.350995 -0.028318
v -3.948570 2.316369 0.005437
v -3.927382 2.337546 0.005438
v -3.945724 2.326957 0.005438
v -3.937968 2.334708 0.005438
v -3.942037 2.310053 0.038104
v -3.921065 2.331012 0.038106
v -3.939219 2.320532 0.038105
v -3.931543 2.328204 0.038106
v -3.941812 2.309901 0.043048
v -3.921904 2.310901 0.062062
v -3.920913 2.330787 0.043049
v -3.938566 2.310224 0.052374
v -3.938689 2.320138 0.043372
v -3.936220 2.319804 0.052200
v -3.921587 2.320360 0.059245
v -3.931373 2.310585 0.059244
v -3.930892 2.319882 0.057156
v -3.931148 2.327674 0.043373
v -3.921230 2.327545 0.052376
v -3.930812 2.325207 0.052201
v -3.898219 2.267069 0.080523
v -3.877238 2.287196 0.080525
v -3.921836 2.310833 0.062062
v -3.894723 2.276537 0.082083
v -3.903253 2.280955 0.071510
v -3.899927 2.285374 0.072357
v -3.891398 2.292239 0.071511
v -3.887144 2.283816 0.082086
v -3.896104 2.289014 0.072361
v -3.911876 2.296934 0.064769
v -3.907683 2.300869 0.064769
v -3.904168 2.293308 0.066927
v -3.897390 2.266218 0.083839
v -3.876354 2.286367 0.083840
v -3.894564 2.276292 0.083839
v -3.886865 2.283667 0.083840
v -3.834644 2.244988 0.129575
v -3.856016 2.221064 0.129573
v -3.842738 2.231736 0.132888
v -3.845321 2.241783 0.129574
v -3.853143 2.233026 0.129574
v -3.798305 2.162699 0.135017
v -3.773685 2.187275 0.135019
v -3.811732 2.200729 0.135483
v -3.794996 2.174987 0.135018
v -3.785985 2.183982 0.135019
v -3.772171 2.136588 0.119773
v -3.747573 2.161142 0.119774
v -3.768866 2.148865 0.119774
v -3.759862 2.157852 0.119774
v -3.768342 2.132779 0.116619
v -3.750310 2.117029 0.085793
v -3.731177 2.136782 0.086418
v -3.743773 2.157321 0.116628
v -3.760684 2.127780 0.107974
v -3.761600 2.141635 0.114045
v -3.755763 2.137044 0.106638
v -3.747227 2.126200 0.084517
v -3.754093 2.122024 0.096707
v -3.750884 2.131795 0.096647
v -3.735172 2.141787 0.097026
v -3.740313 2.133341 0.084742
v -3.744502 2.138449 0.096751
v -3.752636 2.150589 0.114049
v -3.739778 2.149297 0.108073
v -3.748703 2.144305 0.106678
v -3.688380 2.054677 0.044600
v -3.665793 2.077350 0.044599
v -3.715266 2.103068 0.061953
v -3.683977 2.064731 0.042163
v -3.694894 2.069918 0.053103
v -3.691049 2.075417 0.051952
v -3.681799 2.083713 0.053114
v -3.675792 2.072946 0.042163
v -3.686833 2.079853 0.051965
v -3.704717 2.087600 0.059445
v -3.699878 2.093113 0.059454
v -3.696228 2.084632 0.057367
v -3.681791 2.047999 0.029393
v -3.659122 2.070762 0.029394
v -3.678744 2.059381 0.029394
v -3.670446 2.067712 0.029394
v -3.615177 2.027205 0.001083
v -3.638235 2.004195 0.001081
v -3.627354 2.016351 -0.001088
v -3.626696 2.024122 0.001082
v -3.635136 2.015700 0.001082
v -3.520385 1.927504 -0.045226
v -3.539492 1.908465 -0.045276
v -3.557048 1.946045 -0.064252
v -3.529730 1.924671 -0.045570
v -3.532043 1.930066 -0.054525
v -3.535673 1.927261 -0.054367
v -3.541572 1.920403 -0.054551
v -3.536624 1.917801 -0.045588
v -3.538778 1.924118 -0.054375
v -3.545398 1.936819 -0.061456
v -3.547966 1.934090 -0.061462
v -3.541671 1.930362 -0.059375
v -3.604475 1.974416 -0.083286
v -3.585420 1.993481 -0.083291
v -3.585447 1.974444 -0.064252
v -3.601640 1.983762 -0.083287
v -3.601651 1.974429 -0.073944
v -3.599527 1.983474 -0.074239
v -3.585433 1.990656 -0.073949
v -3.594764 1.990641 -0.083289
v -3.594477 1.988527 -0.074240
v -3.594786 1.974439 -0.067077
v -3.585443 1.983788 -0.067079
v -3.594483 1.983483 -0.069193
v -3.585420 1.993481 -0.220518
v -3.604475 1.974416 -0.220513
v -3.594939 1.990915 -0.220515
v -3.601913 1.983937 -0.220513
v 4.073139 2.475838 -0.220511
v 4.092148 2.456806 -0.220483
v 4.082652 2.473288 -0.220507
v 4.089610 2.466321 -0.220497
v 4.044254 2.405018 -0.103420
v 4.021365 2.427930 -0.103454
v 4.041189 2.416472 -0.103437
v 4.032811 2.424859 -0.103449
v 4.044131 2.450793 -0.115431
v 4.067099 2.427770 -0.115397
v 4.080526 2.464193 -0.117179
v 4.055624 2.447708 -0.115426
v 4.064031 2.439281 -0.115414
v 4.092148 2.456806 -0.137702
v 4.073139 2.475838 -0.137730
v 4.073284 2.456951 -0.116234
v 4.089335 2.466147 -0.137711
v 4.089358 2.456852 -0.128015
v 4.087247 2.465881 -0.128393
v 4.073185 2.473045 -0.128039
v 4.082477 2.473013 -0.137721
v 4.082211 2.470923 -0.128401
v 4.082528 2.456905 -0.120242
v 4.073237 2.466207 -0.120256
v 4.082220 2.465893 -0.122920
v 4.024631 2.385652 -0.089263
v 4.002009 2.408325 -0.089297
v 4.021610 2.396988 -0.089280
v 4.013330 2.405287 -0.089292
v 3.981666 2.387636 -0.070785
v 4.003942 2.365310 -0.070752
v 3.992813 2.384645 -0.070781
v 4.000967 2.376473 -0.070768
v 3.964624 2.370213 -0.050096
v 3.986519 2.348270 -0.050063
v 3.975582 2.367273 -0.050092
v 3.983596 2.359241 -0.050079
v 3.948694 2.353879 -0.028318
v 3.970186 2.332343 -0.028285
v 3.959450 2.350994 -0.028313
v 3.967316 2.343111 -0.028301
v 3.932707 2.337545 0.005439
v 3.953853 2.316358 0.005471
v 3.943289 2.334707 0.005443
v 3.951029 2.326952 0.005455
v 3.926391 2.331012 0.038106
v 3.947319 2.310043 0.038138
v 3.936864 2.328203 0.038110
v 3.944525 2.320528 0.038122
v 3.947095 2.309892 0.043081
v 3.926239 2.330787 0.043050
v 3.927211 2.310877 0.062062
v 3.943994 2.320133 0.043395
v 3.943853 2.310208 0.052402
v 3.941526 2.319796 0.052216
v 3.926549 2.327541 0.052376
v 3.936469 2.327672 0.043384
v 3.936130 2.325203 0.052207
v 3.936669 2.310564 0.059260
v 3.926900 2.320348 0.059245
v 3.936202 2.319872 0.057164
v 3.903501 2.266975 0.080566
v 3.927190 2.310857 0.062062
v 3.882354 2.287195 0.080526
v 3.908560 2.280907 0.071533
v 3.899993 2.276483 0.082126
v 3.905217 2.285346 0.072377
v 3.912953 2.300881 0.064770
v 3.917209 2.296928 0.064777
v 3.909459 2.293302 0.066934
v 3.892355 2.283795 0.082113
v 3.896582 2.292242 0.071512
v 3.901355 2.289002 0.072375
v 3.881463 2.286366 0.083840
v 3.902674 2.266124 0.083872
v 3.892078 2.283654 0.083845
v 3.899842 2.276245 0.083856
v 3.898438 2.261843 0.092032
v 3.868237 2.273304 0.108885
v 3.874248 2.233438 0.120162
v 3.891321 2.267755 0.099649
v 3.891889 2.252838 0.101916
v 3.887583 2.261912 0.105458
v 3.870927 2.262011 0.114535
v 3.880332 2.271929 0.105787
v 3.880903 2.264830 0.109454
v 3.883039 2.242445 0.112208
v 3.873126 2.247444 0.118662
v 3.881781 2.255429 0.111568
v 3.861289 2.220488 0.129614
v 3.839804 2.244988 0.129575
v 3.848069 2.231736 0.132888
v 3.858422 2.232738 0.129594
v 3.850558 2.241705 0.129580
v 3.779015 2.187275 0.135019
v 3.803576 2.162679 0.135060
v 3.817062 2.200729 0.135483
v 3.791307 2.183980 0.135025
v 3.800297 2.174977 0.135040
v 3.752904 2.161141 0.119775
v 3.777442 2.136568 0.119815
v 3.765185 2.157849 0.119780
v 3.774167 2.148855 0.119795
v 3.773621 2.132767 0.116669
v 3.749104 2.157321 0.116628
v 3.732186 2.135561 0.086859
v 3.751871 2.115860 0.086899
v 3.766902 2.141628 0.114070
v 3.765423 2.127409 0.108177
v 3.760417 2.136776 0.106776
v 3.743739 2.149119 0.108140
v 3.757958 2.150585 0.114055
v 3.753104 2.144097 0.106763
v 3.741024 2.131833 0.084826
v 3.737551 2.141160 0.097251
v 3.747349 2.137742 0.096874
v 3.757468 2.121225 0.097288
v 3.748153 2.124699 0.084840
v 3.754061 2.131023 0.096887
v 3.730567 2.133923 0.082751
v 3.750247 2.114241 0.082783
v 3.740409 2.131284 0.082755
v 3.747612 2.124080 0.082767
v 3.750061 2.114076 0.081018
v 3.730403 2.133738 0.080989
v 3.729289 2.112956 0.062062
v 3.747074 2.123651 0.080316
v 3.746304 2.113710 0.071733
v 3.744132 2.122725 0.071760
v 3.730046 2.129978 0.071707
v 3.739979 2.130747 0.080305
v 3.739058 2.127802 0.071752
v 3.738786 2.113305 0.064874
v 3.729643 2.122457 0.064860
v 3.738683 2.122350 0.066919
v 3.693655 2.054588 0.044646
v 3.720034 2.103701 0.062062
v 3.670914 2.077350 0.044599
v 3.700115 2.070272 0.053152
v 3.689242 2.064678 0.042174
v 3.696250 2.075577 0.051981
v 3.704534 2.093429 0.059505
v 3.709755 2.088220 0.059515
v 3.701236 2.084914 0.057403
v 3.681004 2.072925 0.042157
v 3.686584 2.083798 0.053125
v 3.691898 2.079928 0.051972
v 3.664234 2.070762 0.029395
v 3.687063 2.047904 0.029434
v 3.675660 2.067699 0.029400
v 3.684016 2.059333 0.029414
v 3.643336 2.050077 0.011971
v 3.666400 2.027018 0.012011
v 3.654870 2.046986 0.011977
v 3.663312 2.038546 0.011991
v 3.643505 2.004030 0.001124
v 3.620366 2.027205 0.001083
v 3.632684 2.016351 -0.001088
v 3.640417 2.015617 0.001103
v 3.631947 2.024100 0.001088
v 3.543353 1.907993 -0.020093
v 3.562314 1.945981 -0.001095
v 3.524326 1.927029 -0.020128
v 3.546142 1.920102 -0.010808
v 3.540531 1.917335 -0.020104
v 3.543332 1.923845 -0.011102
v 3.550267 1.936720 -0.003891
v 3.553052 1.933945 -0.003885
v 3.546535 1.930207 -0.005997
v 3.533666 1.924203 -0.020116
v 3.536423 1.929813 -0.010826
v 3.540173 1.927002 -0.011107
v 3.543329 1.907993 -0.045184
v 3.524326 1.927025 -0.045220
v 3.562325 1.946020 -0.064587
v 3.540519 1.917334 -0.045196
v 3.546130 1.920108 -0.054552
v 3.543325 1.923850 -0.054260
v 3.536413 1.929816 -0.054569
v 3.533663 1.924200 -0.045209
v 3.540167 1.927005 -0.054265
v 3.553054 1.933968 -0.061623
v 3.550262 1.936739 -0.061627
v 3.546532 1.930219 -0.059437
v 3.624370 1.986647 -0.066176
v 3.650282 2.005718 -0.085823
v 3.637326 1.996182 -0.069034
v 3.646811 2.003163 -0.076225
v 3.608762 1.991704 -0.076376
v 3.589818 1.972970 -0.059345
v 3.606224 1.989194 -0.067128
v 3.599290 1.982337 -0.060895
v 4.020385 -2.430290 -0.096565
v 4.043244 -2.407363 -0.096578
v 4.031813 -2.427221 -0.096560
v 4.040180 -2.418830 -0.096564
v 3.894660 -2.263870 0.097729
v 3.872558 -2.237236 0.125941
v 3.867442 -2.275664 0.115774
v 3.889361 -2.255421 0.108016
v 3.889010 -2.270183 0.105343
v 3.885742 -2.264522 0.111635
v 3.871568 -2.250882 0.124600
v 3.881279 -2.245682 0.118332
v 3.880200 -2.258381 0.117816
v 3.879127 -2.274475 0.111906
v 3.869695 -2.264925 0.120877
v 3.879511 -2.267554 0.115710
v 3.730010 -2.136283 0.089641
v 3.749237 -2.116750 0.089628
v 3.739622 -2.133669 0.089646
v 3.746659 -2.126520 0.089641
v 3.729828 -2.136098 0.087881
v 3.749052 -2.116581 0.087869
v 3.727682 -2.115939 0.069079
v 3.739183 -2.133137 0.087194
v 3.729128 -2.132424 0.078607
v 3.738077 -2.130265 0.078648
v 3.745212 -2.116384 0.078616
v 3.746123 -2.126094 0.087190
v 3.743098 -2.125263 0.078661
v 3.728352 -2.125125 0.071808
v 3.737482 -2.116151 0.071815
v 3.737546 -2.124952 0.073839
v 3.665391 -2.029468 0.018841
v 3.642515 -2.052435 0.018857
v 3.662324 -2.040956 0.018858
v 3.653951 -2.049362 0.018863
v 3.521806 -1.928909 -0.013234
v 3.560940 -1.948701 0.005877
v 3.540903 -1.909881 -0.013199
v 3.534142 -1.931980 -0.003923
v 3.531151 -1.926081 -0.013551
v 3.538167 -1.929159 -0.004326
v 3.551649 -1.936512 0.003058
v 3.548408 -1.939193 0.003045
v 3.544878 -1.932585 0.000903
v 3.538042 -1.919215 -0.013539
v 3.544340 -1.922356 -0.003896
v 3.541469 -1.926029 -0.004312
v 4.086402 -2.457593 -0.213342
v 4.067348 -2.476622 -0.213331
v 4.083841 -2.467109 -0.213330
v 4.076867 -2.474073 -0.213326
v 4.061362 -2.428517 -0.108268
v 4.038450 -2.451576 -0.108255
v 4.074735 -2.464982 -0.109982
v 4.058282 -2.440048 -0.108254
v 4.049896 -2.448488 -0.108249
v 4.086402 -2.457593 -0.130560
v 4.067521 -2.457767 -0.109041
v 4.067348 -2.476622 -0.130550
v 4.083611 -2.457648 -0.120866
v 4.083567 -2.466934 -0.130557
v 4.081478 -2.466673 -0.121226
v 4.067462 -2.467006 -0.113069
v 4.076774 -2.457711 -0.113074
v 4.076448 -2.466689 -0.115742
v 4.076692 -2.473799 -0.130553
v 4.067400 -2.473834 -0.120857
v 4.076429 -2.471714 -0.121223
v 3.996238 -2.409108 -0.082121
v 4.018894 -2.386459 -0.082134
v 4.007556 -2.406076 -0.082115
v 4.015849 -2.397786 -0.082120
v 3.998204 -2.366122 -0.063622
v 3.975891 -2.388419 -0.063609
v 3.995205 -2.377272 -0.063608
v 3.987038 -2.385434 -0.063603
v 3.980782 -2.349082 -0.042932
v 3.958846 -2.370996 -0.042920
v 3.977833 -2.360041 -0.042918
v 3.969804 -2.368062 -0.042914
v 3.964448 -2.333154 -0.021154
v 3.942914 -2.354662 -0.021141
v 3.961553 -2.343910 -0.021140
v 3.953671 -2.351783 -0.021135
v 3.948114 -2.317167 0.012603
v 3.926926 -2.338329 0.012616
v 3.945266 -2.327749 0.012617
v 3.937510 -2.335495 0.012621
v 3.941580 -2.310851 0.045271
v 3.920608 -2.331796 0.045283
v 3.938761 -2.321325 0.045284
v 3.931085 -2.328991 0.045289
v 3.941355 -2.310699 0.050216
v 3.921443 -2.311689 0.069259
v 3.920457 -2.331571 0.050228
v 3.938108 -2.311013 0.059546
v 3.938231 -2.320930 0.050543
v 3.935761 -2.320593 0.059379
v 3.921124 -2.321145 0.066433
v 3.930914 -2.311371 0.066427
v 3.930431 -2.320670 0.064341
v 3.930690 -2.328462 0.050547
v 3.920768 -2.328329 0.059557
v 3.930352 -2.325994 0.059383
v 3.897764 -2.267869 0.087683
v 3.876783 -2.287980 0.087699
v 3.921375 -2.311621 0.069259
v 3.894269 -2.277333 0.089248
v 3.902796 -2.281754 0.078686
v 3.899470 -2.286168 0.079537
v 3.890947 -2.293025 0.078695
v 3.886689 -2.284606 0.089256
v 3.895649 -2.289804 0.079543
v 3.911416 -2.297729 0.071960
v 3.907229 -2.301657 0.071962
v 3.903712 -2.294099 0.074115
v 3.896934 -2.267016 0.091006
v 3.875898 -2.287150 0.091017
v 3.894106 -2.277085 0.091019
v 3.886406 -2.284454 0.091023
v 3.834189 -2.245771 0.136751
v 3.855561 -2.221870 0.136734
v 3.842278 -2.232523 0.140085
v 3.844864 -2.242571 0.136756
v 3.852686 -2.233822 0.136750
v 3.797850 -2.163473 0.142176
v 3.773209 -2.188057 0.142192
v 3.811271 -2.201517 0.142680
v 3.794537 -2.175767 0.142193
v 3.785517 -2.184766 0.142199
v 3.771717 -2.137362 0.126931
v 3.747097 -2.161924 0.126947
v 3.768406 -2.149645 0.126948
v 3.759395 -2.158635 0.126954
v 3.767897 -2.133562 0.123785
v 3.749852 -2.117807 0.092950
v 3.730713 -2.137564 0.093594
v 3.743307 -2.158113 0.123809
v 3.760233 -2.128559 0.115139
v 3.761144 -2.142419 0.121222
v 3.755305 -2.137827 0.113815
v 3.746766 -2.126978 0.091680
v 3.753637 -2.122801 0.103869
v 3.750424 -2.132576 0.103820
v 3.734706 -2.142570 0.104204
v 3.739849 -2.134121 0.091912
v 3.744040 -2.139232 0.103929
v 3.752172 -2.151376 0.121231
v 3.739312 -2.150084 0.115253
v 3.748240 -2.145091 0.113860
v 3.687920 -2.055448 0.051750
v 3.665318 -2.078130 0.051766
v 3.714804 -2.103856 0.069151
v 3.683509 -2.065504 0.049320
v 3.694433 -2.070686 0.060272
v 3.690585 -2.076193 0.059127
v 3.681327 -2.084496 0.060295
v 3.675319 -2.073722 0.049326
v 3.686366 -2.080634 0.059143
v 3.704256 -2.088375 0.066632
v 3.699412 -2.093899 0.066645
v 3.695764 -2.085413 0.064552
v 3.681335 -2.048774 0.036552
v 3.658649 -2.071544 0.036569
v 3.678284 -2.060162 0.036569
v 3.669981 -2.068496 0.036575
v 3.614704 -2.027987 0.008256
v 3.637780 -2.004969 0.008239
v 3.626893 -2.017139 0.006109
v 3.626230 -2.024905 0.008263
v 3.634676 -2.016480 0.008256
v 3.539036 -1.909253 -0.038112
v 3.556587 -1.946833 -0.057055
v 3.519923 -1.928288 -0.038048
v 3.541114 -1.921193 -0.047371
v 3.536166 -1.918588 -0.038419
v 3.538319 -1.924906 -0.047192
v 3.544943 -1.937607 -0.054261
v 3.547506 -1.934880 -0.054270
v 3.541213 -1.931150 -0.052184
v 3.529269 -1.925457 -0.038396
v 3.531587 -1.930852 -0.047337
v 3.535214 -1.928048 -0.047182
v 3.604013 -1.975205 -0.076088
v 3.584959 -1.994269 -0.076093
v 3.584986 -1.975232 -0.057055
v 3.601179 -1.984551 -0.076090
v 3.601190 -1.975217 -0.066747
v 3.599065 -1.984263 -0.067041
v 3.584972 -1.991444 -0.066751
v 3.594303 -1.991429 -0.076092
v 3.594015 -1.989315 -0.067043
v 3.594325 -1.975227 -0.059879
v 3.584982 -1.984576 -0.059882
v 3.594023 -1.984271 -0.061995
v 3.584959 -1.994269 -0.213321
v 3.604013 -1.975205 -0.213315
v 3.594478 -1.991703 -0.213317
v 3.601452 -1.984725 -0.213315
v -3.625188 -1.987462 -0.060765
v -3.650743 -2.006505 -0.078626
v -3.637965 -1.996984 -0.062730
v -3.647319 -2.003954 -0.069267
vn -0.0884 -0.0872 0.9923
vn 0.0730 0.0744 0.9946
vn 1.0000 -0.0012 -0.0000
vn -0.0877 0.0878 0.9923
vn 0.0750 -0.0745 0.9944
vn 0.0872 0.0884 0.9923
vn -0.0738 -0.0731 0.9946
vn 0.0017 -1.0000 -0.0000
vn -1.0000 0.0012 -0.0000
vn 0.0879 -0.0876 0.9923
vn -0.0739 0.0748 0.9945
vn -0.0017 1.0000 -0.0000
vn -0.1320 -0.9912 0.0018
vn -0.9914 -0.1308 0.0017
vn -0.5005 -0.8657 0.0039
vn -0.8664 -0.4993 0.0039
vn -0.4778 -0.0600 0.8764
vn -0.0610 -0.4770 0.8768
vn -0.3551 -0.1991 0.9134
vn -0.2001 -0.3543 0.9135
vn -0.0365 -0.2533 0.9667
vn -0.2544 -0.0355 0.9665
vn 0.7060 0.7051 0.0666
vn -0.0970 -0.1643 0.9816
vn -0.1654 -0.0959 0.9816
vn -0.1433 -0.9802 0.1364
vn -0.6362 -0.6355 -0.4374
vn -0.9804 -0.1421 0.1362
vn -0.1193 -0.8754 0.4684
vn -0.4997 -0.8593 0.1090
vn -0.4425 -0.7965 0.4121
vn -0.5663 -0.1413 0.8120
vn -0.1428 -0.5653 0.8124
vn -0.4704 -0.4691 0.7475
vn -0.8599 -0.4987 0.1090
vn -0.8759 -0.1178 0.4680
vn -0.7974 -0.4411 0.4119
vn -0.5790 -0.0718 0.8122
vn -0.0731 -0.5784 0.8125
vn -0.4409 -0.2467 0.8630
vn -0.2480 -0.4399 0.8631
vn -0.0850 -0.6713 0.7363
vn -0.6721 -0.0835 0.7357
vn -0.2949 -0.5216 0.8006
vn -0.5228 -0.2935 0.8003
vn -0.0940 -0.7417 0.6641
vn -0.7424 -0.0925 0.6635
vn -0.3341 -0.5902 0.7349
vn -0.5913 -0.3327 0.7347
vn -0.1035 -0.8197 0.5633
vn -0.8203 -0.1020 0.5628
vn -0.3781 -0.6665 0.6425
vn -0.6675 -0.3767 0.6422
vn -0.1152 -0.9294 0.3508
vn -0.9297 -0.1137 0.3504
vn -0.4480 -0.7896 0.4193
vn -0.7905 -0.4466 0.4191
vn -0.1295 -0.9818 0.1389
vn -0.9820 -0.1281 0.1388
vn -0.4867 -0.8516 0.1948
vn -0.8523 -0.4854 0.1948
vn -0.1380 -0.9732 0.1840
vn -0.1376 -0.1364 0.9810
vn -0.9734 -0.1367 0.1838
vn -0.1124 -0.8444 0.5239
vn -0.4865 -0.8530 0.1892
vn -0.4323 -0.7725 0.4651
vn -0.4970 -0.1039 0.8615
vn -0.1053 -0.4960 0.8619
vn -0.4314 -0.4301 0.7931
vn -0.8537 -0.4853 0.1891
vn -0.8449 -0.1108 0.5233
vn -0.7735 -0.4308 0.4649
vn -0.0853 -0.9049 0.4170
vn -0.9028 -0.0913 0.4203
vn -0.0328 -0.0319 0.9990
vn -0.4295 -0.7842 0.4478
vn -0.1411 -0.6463 0.7500
vn -0.3566 -0.5374 0.7642
vn -0.6377 -0.1508 0.7554
vn -0.7680 -0.4545 0.4512
vn -0.5170 -0.3787 0.7677
vn -0.0928 -0.2387 0.9666
vn -0.2333 -0.0968 0.9676
vn -0.2505 -0.2654 0.9311
vn -0.1193 -0.9121 0.3923
vn -0.9116 -0.1280 0.3905
vn -0.4621 -0.8030 0.3764
vn -0.7853 -0.4915 0.3765
vn -0.1287 -0.7058 0.6966
vn -0.5910 -0.0649 0.8040
vn -0.8347 -0.1046 0.5406
vn -0.2879 -0.3977 0.8712
vn -0.3836 -0.6047 0.6980
vn -0.4560 -0.3607 0.8136
vn -0.6801 -0.0548 0.7310
vn -0.4690 -0.2151 0.8566
vn -0.5660 -0.1746 0.8057
vn -0.6777 -0.3560 0.6435
vn -0.7762 -0.0490 0.6285
vn -0.6667 -0.2118 0.7146
vn -0.4256 -0.0281 0.9045
vn -0.0398 -0.4241 0.9047
vn -0.1679 -0.1631 0.9722
vn -0.3786 -0.1729 0.9093
vn -0.2088 -0.3539 0.9117
vn 0.0368 0.2269 0.9732
vn 0.2264 0.0374 0.9733
vn 0.0160 0.0169 0.9997
vn 0.0917 0.1514 0.9842
vn 0.1508 0.0923 0.9842
vn 0.0670 0.5179 0.8528
vn 0.5179 0.0671 0.8528
vn 0.2156 0.3844 0.8977
vn 0.3843 0.2156 0.8977
vn 0.0938 0.6250 0.7750
vn 0.1133 0.8789 0.4634
vn 0.8797 0.1131 0.4618
vn 0.6251 0.0936 0.7749
vn 0.1286 0.7206 0.6814
vn 0.3023 0.5038 0.8092
vn 0.3910 0.5980 0.6997
vn 0.4531 0.7583 0.4688
vn 0.1194 0.8100 0.5742
vn 0.4141 0.6666 0.6198
vn 0.8102 0.1190 0.5740
vn 0.7591 0.4531 0.4675
vn 0.6669 0.4137 0.6198
vn 0.5040 0.3021 0.8091
vn 0.7207 0.1283 0.6812
vn 0.5983 0.3906 0.6996
vn 0.1235 0.9548 0.2703
vn 0.9554 0.1233 0.2684
vn 0.4787 0.8164 0.3230
vn 0.8171 0.4784 0.3216
vn 0.1339 0.9607 0.2431
vn 0.1359 0.1367 0.9813
vn 0.9608 0.1336 0.2431
vn 0.1044 0.8207 0.5618
vn 0.4695 0.8301 0.3007
vn 0.4101 0.7467 0.5237
vn 0.4731 0.1076 0.8744
vn 0.1069 0.4735 0.8743
vn 0.4046 0.4050 0.8199
vn 0.8303 0.4693 0.3007
vn 0.8206 0.1046 0.5618
vn 0.7466 0.4103 0.5237
vn 0.0819 0.8254 0.5586
vn 0.8257 0.0813 0.5583
vn 0.0288 0.0297 0.9991
vn 0.3666 0.6696 0.6460
vn 0.1156 0.5811 0.8056
vn 0.3129 0.4829 0.8179
vn 0.5811 0.1157 0.8056
vn 0.6699 0.3660 0.6459
vn 0.4828 0.3130 0.8179
vn 0.0825 0.2175 0.9726
vn 0.2167 0.0832 0.9727
vn 0.2323 0.2332 0.9443
vn 0.0992 0.7709 0.6292
vn 0.7711 0.0988 0.6289
vn 0.3672 0.6379 0.6770
vn 0.6383 0.3665 0.6769
vn 0.0574 0.5075 0.8598
vn 0.5071 0.0580 0.8599
vn 0.2138 0.3906 0.8954
vn 0.3902 0.2144 0.8954
vn 0.3165 0.0216 0.9483
vn 0.0210 0.3174 0.9481
vn 0.1686 0.1692 0.9710
vn 0.2899 0.1434 0.9463
vn 0.1431 0.2902 0.9462
vn 0.1044 0.9771 0.1851
vn 0.9772 0.1038 0.1853
vn 0.0360 0.0370 0.9987
vn 0.4798 0.8178 0.3179
vn 0.2076 0.7153 0.6672
vn 0.4583 0.5628 0.6879
vn 0.7151 0.2080 0.6674
vn 0.8178 0.4798 0.3180
vn 0.5623 0.4589 0.6880
vn 0.1100 0.2603 0.9592
vn 0.2595 0.1109 0.9594
vn 0.2868 0.2877 0.9138
vn 0.9770 0.1031 -0.1869
vn 0.1045 0.9768 -0.1867
vn 0.0400 0.0018 -0.9992
vn 0.8177 0.4786 -0.3199
vn 0.7071 0.2059 -0.6765
vn 0.5591 0.4544 -0.6935
vn 0.2083 0.7064 -0.6765
vn 0.4800 0.8167 -0.3203
vn 0.4572 0.5564 -0.6938
vn 0.2388 0.1035 -0.9655
vn 0.1053 0.2372 -0.9657
vn 0.2790 0.2761 -0.9197
vn 0.9929 -0.0012 -0.1190
vn 0.2007 -0.0002 -0.9797
vn 0.9048 -0.0011 -0.4258
vn 0.6030 -0.0007 -0.7977
vn -0.0616 0.4720 0.8794
vn -0.4871 0.0558 0.8716
vn -0.2032 0.3521 0.9136
vn -0.3651 0.1966 0.9100
vn -0.5621 0.0605 0.8249
vn -0.1464 0.7132 0.6855
vn -0.9005 0.1085 0.4211
vn -0.4514 0.1991 0.8698
vn -0.6942 0.0495 0.7181
vn -0.5888 0.1609 0.7921
vn -0.4306 0.6327 0.6437
vn -0.2902 0.3778 0.8792
vn -0.4881 0.3560 0.7969
vn -0.8267 0.0425 0.5611
vn -0.7453 0.3764 0.5504
vn -0.7187 0.2052 0.6644
vn 0.1402 -0.9640 0.2262
vn 0.9773 -0.1252 0.1710
vn 0.4945 -0.8349 0.2418
vn 0.8480 -0.4832 0.2176
vn 0.1362 -0.9606 0.2424
vn 0.9603 -0.1308 0.2463
vn 0.1289 -0.1360 0.9823
vn 0.4738 -0.8272 0.3020
vn 0.1046 -0.8239 0.5569
vn 0.4090 -0.7469 0.5243
vn 0.8150 -0.1020 0.5704
vn 0.8329 -0.4636 0.3023
vn 0.7446 -0.4070 0.5291
vn 0.1061 -0.4772 0.8724
vn 0.4614 -0.1044 0.8810
vn 0.4010 -0.4039 0.8222
vn 0.5411 -0.0569 0.8390
vn 0.0612 -0.5138 0.8557
vn 0.4226 -0.2228 0.8785
vn 0.2287 -0.4041 0.8857
vn 0.9616 -0.1012 0.2549
vn 0.1040 -0.9706 0.2169
vn 0.0373 -0.0376 0.9986
vn 0.8034 -0.4664 0.3701
vn 0.6938 -0.1987 0.6922
vn 0.5464 -0.4503 0.7062
vn 0.1903 -0.7124 0.6755
vn 0.4689 -0.8099 0.3524
vn 0.4313 -0.5692 0.7000
vn 0.2513 -0.1132 0.9613
vn 0.1034 -0.2650 0.9587
vn 0.2696 -0.2971 0.9160
vn -0.9912 0.1326 0.0017
vn -0.1317 0.9913 0.0017
vn -0.8657 0.5006 0.0039
vn -0.4998 0.8661 0.0039
vn -0.2852 0.0421 0.9575
vn -0.0368 0.2664 0.9632
vn 0.7055 -0.7062 0.0593
vn -0.1818 0.1081 0.9774
vn -0.1033 0.1784 0.9785
vn -0.9802 0.1438 0.1364
vn -0.6352 0.6363 -0.4377
vn -0.1429 0.9803 0.1363
vn -0.8755 0.1195 0.4682
vn -0.8592 0.4999 0.1089
vn -0.7966 0.4425 0.4118
vn -0.1420 0.5662 0.8120
vn -0.5658 0.1425 0.8121
vn -0.4697 0.4702 0.7472
vn -0.4991 0.8597 0.1089
vn -0.1187 0.8757 0.4680
vn -0.4417 0.7971 0.4118
vn -0.0692 0.5669 0.8208
vn -0.5414 0.0706 0.8378
vn -0.2347 0.4238 0.8748
vn -0.4117 0.2356 0.8804
vn -0.6715 0.0847 0.7362
vn -0.0843 0.6717 0.7360
vn -0.5221 0.2943 0.8005
vn -0.2943 0.5222 0.8005
vn -0.7418 0.0939 0.6640
vn -0.0933 0.7421 0.6638
vn -0.5906 0.3336 0.7348
vn -0.3334 0.5907 0.7348
vn -0.8197 0.1035 0.5633
vn -0.1028 0.8200 0.5631
vn -0.6668 0.3778 0.6424
vn -0.3774 0.6670 0.6424
vn -0.9293 0.1155 0.3508
vn -0.1147 0.9295 0.3506
vn -0.7898 0.4478 0.4192
vn -0.4473 0.7901 0.4191
vn -0.9817 0.1300 0.1390
vn -0.1291 0.9819 0.1389
vn -0.8516 0.4867 0.1948
vn -0.4861 0.8519 0.1948
vn -0.9731 0.1385 0.1840
vn -0.1370 0.1373 0.9810
vn -0.1376 0.9733 0.1839
vn -0.8445 0.1125 0.5236
vn -0.8530 0.4865 0.1891
vn -0.7728 0.4322 0.4648
vn -0.1045 0.4969 0.8615
vn -0.4966 0.1050 0.8616
vn -0.4308 0.4312 0.7928
vn -0.4859 0.8533 0.1891
vn -0.1117 0.8448 0.5234
vn -0.4316 0.7732 0.4647
vn -0.9027 0.0927 0.4203
vn -0.0852 0.9049 0.4169
vn -0.0325 0.0325 0.9989
vn -0.7680 0.4537 0.4520
vn -0.6377 0.1516 0.7552
vn -0.5180 0.3784 0.7672
vn -0.1416 0.6460 0.7501
vn -0.4301 0.7832 0.4491
vn -0.3582 0.5364 0.7642
vn -0.2336 0.0970 0.9675
vn -0.0926 0.2389 0.9666
vn -0.2513 0.2647 0.9310
vn -0.9367 0.1339 0.3236
vn -0.1176 0.9247 0.3620
vn -0.8009 0.5043 0.3229
vn -0.4664 0.8187 0.3349
vn -0.0357 0.4152 0.9090
vn -0.3956 0.0281 0.9180
vn -0.1652 0.1624 0.9728
vn -0.1946 0.3420 0.9193
vn -0.3527 0.1665 0.9208
vn 0.2259 -0.0379 0.9734
vn 0.0375 -0.2262 0.9734
vn 0.0164 -0.0165 0.9997
vn 0.1510 -0.0925 0.9842
vn 0.0922 -0.1512 0.9842
vn 0.5170 -0.0682 0.8532
vn 0.0675 -0.5175 0.8530
vn 0.3838 -0.2162 0.8977
vn 0.2156 -0.3844 0.8976
vn 0.6363 -0.1003 0.7649
vn 0.9473 -0.1216 0.2965
vn 0.1215 -0.9088 0.3991
vn 0.0956 -0.6336 0.7677
vn 0.7632 -0.1446 0.6298
vn 0.5192 -0.3168 0.7938
vn 0.6390 -0.4212 0.6437
vn 0.8197 -0.4823 0.3088
vn 0.8753 -0.1328 0.4649
vn 0.7236 -0.4496 0.5237
vn 0.1311 -0.8387 0.5286
vn 0.4718 -0.8023 0.3656
vn 0.4548 -0.7036 0.5460
vn 0.3143 -0.5195 0.7946
vn 0.1427 -0.7412 0.6559
vn 0.4253 -0.6269 0.6528
vn 0.8233 -0.0830 0.5615
vn 0.0823 -0.8268 0.5565
vn 0.0269 -0.0263 0.9993
vn 0.6701 -0.3666 0.6455
vn 0.5782 -0.1133 0.8080
vn 0.4868 -0.3056 0.8183
vn 0.1201 -0.5805 0.8054
vn 0.3677 -0.6688 0.6462
vn 0.3211 -0.4750 0.8193
vn 0.2160 -0.0798 0.9731
vn 0.0853 -0.2118 0.9736
vn 0.2408 -0.2223 0.9448
vn 0.8040 -0.1073 0.5848
vn 0.1010 -0.7882 0.6071
vn 0.6598 -0.3828 0.6466
vn 0.3771 -0.6571 0.6527
vn 0.0192 -0.2991 0.9540
vn 0.2790 -0.0203 0.9601
vn 0.1672 -0.1670 0.9717
vn 0.1311 -0.2706 0.9537
vn 0.2618 -0.1320 0.9561
vn 0.1043 -0.9823 -0.1555
vn 0.9879 -0.1076 -0.1118
vn 0.0368 -0.0371 -0.9986
vn 0.4901 -0.8247 -0.2823
vn 0.2225 -0.7176 -0.6600
vn 0.4791 -0.5588 -0.6769
vn 0.7338 -0.2217 -0.6422
vn 0.8275 -0.4947 -0.2654
vn 0.5681 -0.4735 -0.6731
vn 0.1156 -0.2579 -0.9592
vn 0.2659 -0.1106 -0.9576
vn 0.2973 -0.2848 -0.9113
vn 0.9792 -0.1440 -0.1428
vn 0.1444 -0.9792 -0.1429
vn 0.1431 -0.1432 -0.9793
vn 0.8590 -0.4991 -0.1136
vn 0.8591 -0.1143 -0.4990
vn 0.7884 -0.4355 -0.4345
vn 0.1145 -0.8590 -0.4990
vn 0.4995 -0.8588 -0.1136
vn 0.4358 -0.7882 -0.4346
vn 0.4994 -0.1138 -0.8589
vn 0.1138 -0.4993 -0.8589
vn 0.4355 -0.4354 -0.7879
vn 0.1328 -0.9911 -0.0011
vn 0.9912 -0.1323 -0.0011
vn 0.5007 -0.8656 -0.0024
vn 0.8658 -0.5004 -0.0024
vn 0.1306 0.9914 -0.0000
vn 0.9914 0.1307 0.0017
vn 0.5012 0.8653 0.0021
vn 0.8663 0.4995 0.0039
vn 0.4769 0.0611 0.8768
vn 0.0601 0.4777 0.8764
vn 0.3542 0.2002 0.9135
vn 0.1991 0.3552 0.9134
vn 0.0356 0.2542 0.9665
vn 0.2532 0.0368 0.9667
vn -0.7058 -0.7064 0.0540
vn 0.0959 0.1654 0.9815
vn 0.1643 0.0972 0.9816
vn 0.9804 0.1420 0.1364
vn 0.1423 0.9803 0.1373
vn 0.6371 0.6349 -0.4371
vn 0.8599 0.4987 0.1091
vn 0.8756 0.1183 0.4684
vn 0.7970 0.4414 0.4123
vn 0.1186 0.8755 0.4684
vn 0.5000 0.8590 0.1100
vn 0.4418 0.7968 0.4122
vn 0.5655 0.1423 0.8124
vn 0.1417 0.5658 0.8123
vn 0.4694 0.4698 0.7476
vn 0.5783 0.0728 0.8126
vn 0.0722 0.5790 0.8121
vn 0.4401 0.2476 0.8631
vn 0.2471 0.4407 0.8630
vn 0.0842 0.6718 0.7360
vn 0.6716 0.0844 0.7361
vn 0.2940 0.5223 0.8004
vn 0.5221 0.2944 0.8005
vn 0.0933 0.7421 0.6638
vn 0.7421 0.0933 0.6638
vn 0.3333 0.5908 0.7348
vn 0.5907 0.3334 0.7348
vn 0.1028 0.8200 0.5631
vn 0.8201 0.1026 0.5630
vn 0.3775 0.6670 0.6424
vn 0.6671 0.3774 0.6423
vn 0.1147 0.9295 0.3506
vn 0.9296 0.1140 0.3504
vn 0.4476 0.7899 0.4192
vn 0.7903 0.4469 0.4191
vn 0.1292 0.9818 0.1389
vn 0.9820 0.1281 0.1387
vn 0.4866 0.8516 0.1948
vn 0.8523 0.4854 0.1947
vn 0.9734 0.1367 0.1839
vn 0.1377 0.9732 0.1840
vn 0.1364 0.1375 0.9811
vn 0.8537 0.4853 0.1892
vn 0.8446 0.1114 0.5237
vn 0.7731 0.4312 0.4652
vn 0.1116 0.8445 0.5238
vn 0.4864 0.8530 0.1893
vn 0.4317 0.7728 0.4652
vn 0.4960 0.1050 0.8619
vn 0.1042 0.4965 0.8617
vn 0.4304 0.4308 0.7932
vn 0.9027 0.0917 0.4203
vn 0.0316 0.0331 0.9990
vn 0.0846 0.9050 0.4170
vn 0.6371 0.1517 0.7557
vn 0.7678 0.4551 0.4509
vn 0.5164 0.3795 0.7677
vn 0.0917 0.2396 0.9665
vn 0.2321 0.0980 0.9677
vn 0.2494 0.2664 0.9310
vn 0.4290 0.7845 0.4479
vn 0.1402 0.6467 0.7498
vn 0.3558 0.5382 0.7641
vn 0.1188 0.9122 0.3921
vn 0.9116 0.1283 0.3905
vn 0.4618 0.8032 0.3764
vn 0.7853 0.4917 0.3762
vn 0.8345 0.1052 0.5408
vn 0.1279 0.7062 0.6963
vn 0.5904 0.0660 0.8044
vn 0.6773 0.3566 0.6436
vn 0.7759 0.0497 0.6289
vn 0.6662 0.2125 0.7149
vn 0.2870 0.3985 0.8711
vn 0.3830 0.6052 0.6979
vn 0.4552 0.3615 0.8137
vn 0.6796 0.0556 0.7315
vn 0.4683 0.2160 0.8568
vn 0.5654 0.1755 0.8059
vn 0.4247 0.0294 0.9049
vn 0.0388 0.4249 0.9044
vn 0.1667 0.1643 0.9722
vn 0.3776 0.1739 0.9095
vn 0.2078 0.3548 0.9116
vn -0.0377 -0.2260 0.9734
vn -0.2277 -0.0358 0.9731
vn -0.0172 -0.0156 0.9997
vn -0.0928 -0.1503 0.9843
vn -0.1520 -0.0910 0.9842
vn -0.0678 -0.5173 0.8531
vn -0.5189 -0.0657 0.8523
vn -0.2165 -0.3835 0.8978
vn -0.3854 -0.2145 0.8975
vn -0.6259 -0.0923 0.7744
vn -0.0945 -0.6245 0.7753
vn -0.1136 -0.8788 0.4635
vn -0.8800 -0.1122 0.4615
vn -0.5050 -0.3010 0.8090
vn -0.7214 -0.1271 0.6808
vn -0.5991 -0.3897 0.6995
vn -0.1292 -0.7203 0.6816
vn -0.3031 -0.5032 0.8093
vn -0.3917 -0.5974 0.6998
vn -0.4534 -0.7580 0.4688
vn -0.1199 -0.8098 0.5743
vn -0.4147 -0.6661 0.6199
vn -0.8106 -0.1179 0.5736
vn -0.7595 -0.4524 0.4674
vn -0.6676 -0.4128 0.6196
vn -0.1235 -0.9548 0.2702
vn -0.9555 -0.1227 0.2683
vn -0.4788 -0.8163 0.3231
vn -0.8174 -0.4780 0.3216
vn -0.9608 -0.1332 0.2432
vn -0.1339 -0.9607 0.2431
vn -0.1371 -0.1354 0.9813
vn -0.8304 -0.4689 0.3009
vn -0.8209 -0.1035 0.5616
vn -0.7471 -0.4095 0.5237
vn -0.1048 -0.8204 0.5621
vn -0.4696 -0.8300 0.3009
vn -0.4106 -0.7462 0.5239
vn -0.4740 -0.1061 0.8741
vn -0.1079 -0.4728 0.8746
vn -0.4054 -0.4040 0.8200
vn -0.8260 -0.0801 0.5579
vn -0.0301 -0.0284 0.9991
vn -0.0823 -0.8253 0.5587
vn -0.5818 -0.1143 0.8053
vn -0.6705 -0.3651 0.6459
vn -0.4835 -0.3119 0.8179
vn -0.0835 -0.2164 0.9727
vn -0.2180 -0.0817 0.9725
vn -0.2334 -0.2318 0.9443
vn -0.3672 -0.6690 0.6462
vn -0.1163 -0.5806 0.8059
vn -0.3137 -0.4820 0.8181
vn -0.0997 -0.7706 0.6294
vn -0.7716 -0.0977 0.6285
vn -0.3677 -0.6375 0.6771
vn -0.6390 -0.3658 0.6767
vn -0.0582 -0.5069 0.8601
vn -0.5082 -0.0566 0.8594
vn -0.2147 -0.3897 0.8956
vn -0.3912 -0.2131 0.8953
vn -0.3180 -0.0200 0.9479
vn -0.0220 -0.3166 0.9483
vn -0.1697 -0.1683 0.9710
vn -0.2914 -0.1422 0.9460
vn -0.1443 -0.2895 0.9462
vn -0.9772 -0.1033 0.1854
vn -0.0374 -0.0356 0.9987
vn -0.1045 -0.9771 0.1852
vn -0.7155 -0.2068 0.6673
vn -0.8180 -0.4791 0.3183
vn -0.5627 -0.4579 0.6883
vn -0.1110 -0.2592 0.9594
vn -0.2607 -0.1093 0.9592
vn -0.2876 -0.2865 0.9139
vn -0.4803 -0.8174 0.3181
vn -0.2083 -0.7148 0.6676
vn -0.4590 -0.5617 0.6883
vn -0.9774 -0.1035 -0.1841
vn -0.1044 -0.9773 -0.1846
vn 0.0316 -0.0541 -0.9980
vn -0.8185 -0.4794 -0.3165
vn -0.7185 -0.2086 -0.6635
vn -0.5644 -0.4605 -0.6851
vn -0.2077 -0.7191 -0.6632
vn -0.4799 -0.8183 -0.3164
vn -0.4590 -0.5659 -0.6849
vn -0.2690 -0.1151 -0.9562
vn -0.1132 -0.2710 -0.9559
vn -0.2909 -0.2934 -0.9107
vn 0.0002 -0.2416 -0.9704
vn 0.0016 -0.9935 -0.1139
vn 0.0009 -0.6379 -0.7701
vn 0.0014 -0.9172 -0.3985
vn -0.9926 0.0012 -0.1215
vn -0.0733 -0.0006 -0.9973
vn -0.8967 0.0011 -0.4426
vn -0.5517 0.0006 -0.8340
vn 0.0609 -0.4726 0.8792
vn 0.4878 -0.0548 0.8712
vn 0.2031 -0.3523 0.9136
vn 0.3655 -0.1962 0.9099
vn 0.9006 -0.1083 0.4210
vn 0.5626 -0.0596 0.8246
vn 0.1459 -0.7135 0.6853
vn 0.8269 -0.0420 0.5608
vn 0.7453 -0.3763 0.5503
vn 0.7189 -0.2051 0.6642
vn 0.4517 -0.1986 0.8698
vn 0.6946 -0.0487 0.7177
vn 0.5890 -0.1605 0.7920
vn 0.4303 -0.6329 0.6436
vn 0.2900 -0.3780 0.8792
vn 0.4882 -0.3562 0.7968
vn -0.1401 0.9640 0.2261
vn -0.9772 0.1256 0.1710
vn -0.4945 0.8350 0.2412
vn -0.8479 0.4838 0.2169
vn -0.1361 0.9606 0.2423
vn -0.9603 0.1313 0.2462
vn -0.1284 0.1361 0.9823
vn -0.4738 0.8273 0.3018
vn -0.1047 0.8239 0.5570
vn -0.4088 0.7470 0.5243
vn -0.8147 0.1029 0.5707
vn -0.8327 0.4641 0.3021
vn -0.7442 0.4075 0.5292
vn -0.1061 0.4768 0.8726
vn -0.4605 0.1052 0.8814
vn -0.4007 0.4042 0.8223
vn -0.5403 0.0582 0.8395
vn -0.0617 0.5135 0.8559
vn -0.4220 0.2235 0.8786
vn -0.2286 0.4042 0.8857
vn -0.1039 0.9707 0.2169
vn -0.0370 0.0379 0.9986
vn -0.9615 0.1018 0.2551
vn -0.1905 0.7125 0.6753
vn -0.4686 0.8102 0.3520
vn -0.4313 0.5699 0.6994
vn -0.2505 0.1143 0.9613
vn -0.1039 0.2647 0.9587
vn -0.2698 0.2976 0.9158
vn -0.8033 0.4669 0.3698
vn -0.6936 0.1996 0.6922
vn -0.5467 0.4509 0.7056
vn 0.9913 -0.1316 -0.0000
vn 0.1314 -0.9913 0.0017
vn 0.8650 -0.5017 0.0021
vn 0.4996 -0.8663 0.0039
vn 0.2862 -0.0410 0.9573
vn 0.0360 -0.2670 0.9630
vn -0.7055 0.7066 0.0546
vn 0.1821 -0.1074 0.9774
vn 0.1030 -0.1783 0.9786
vn 0.9801 -0.1433 0.1372
vn 0.6344 -0.6362 -0.4391
vn 0.1427 -0.9803 0.1362
vn 0.8757 -0.1192 0.4680
vn 0.8587 -0.5006 0.1097
vn 0.7967 -0.4425 0.4116
vn 0.1418 -0.5667 0.8116
vn 0.5664 -0.1421 0.8118
vn 0.4699 -0.4703 0.7470
vn 0.4990 -0.8598 0.1088
vn 0.1183 -0.8759 0.4677
vn 0.4416 -0.7973 0.4115
vn 0.0685 -0.5675 0.8205
vn 0.5420 -0.0697 0.8375
vn 0.2345 -0.4240 0.8748
vn 0.4120 -0.2352 0.8803
vn 0.6719 -0.0840 0.7359
vn 0.0836 -0.6721 0.7357
vn 0.5224 -0.2940 0.8004
vn 0.2940 -0.5224 0.8004
vn 0.7421 -0.0932 0.6637
vn 0.0927 -0.7424 0.6635
vn 0.5908 -0.3333 0.7348
vn 0.3331 -0.5909 0.7347
vn 0.8199 -0.1030 0.5631
vn 0.1022 -0.8202 0.5628
vn 0.6670 -0.3776 0.6424
vn 0.3772 -0.6672 0.6423
vn 0.9294 -0.1152 0.3508
vn 0.1142 -0.9296 0.3505
vn 0.7898 -0.4478 0.4192
vn 0.4471 -0.7903 0.4191
vn 0.9817 -0.1301 0.1389
vn 0.1288 -0.9819 0.1388
vn 0.8515 -0.4868 0.1948
vn 0.4858 -0.8521 0.1948
vn 0.9731 -0.1386 0.1840
vn 0.1374 -0.1371 0.9810
vn 0.1373 -0.9733 0.1839
vn 0.8447 -0.1121 0.5234
vn 0.8529 -0.4867 0.1891
vn 0.7728 -0.4322 0.4647
vn 0.1041 -0.4975 0.8612
vn 0.4974 -0.1042 0.8612
vn 0.4311 -0.4313 0.7925
vn 0.4857 -0.8534 0.1891
vn 0.1113 -0.8449 0.5232
vn 0.4313 -0.7734 0.4646
vn 0.9027 -0.0923 0.4203
vn 0.0847 -0.9051 0.4168
vn 0.0327 -0.0320 0.9990
vn 0.7676 -0.4533 0.4530
vn 0.6379 -0.1509 0.7552
vn 0.5177 -0.3780 0.7675
vn 0.1411 -0.6461 0.7501
vn 0.4296 -0.7829 0.4500
vn 0.3580 -0.5360 0.7645
vn 0.2342 -0.0961 0.9674
vn 0.0921 -0.2391 0.9666
vn 0.2512 -0.2641 0.9312
vn 0.9367 -0.1337 0.3235
vn 0.1171 -0.9248 0.3619
vn 0.8007 -0.5042 0.3236
vn 0.4659 -0.8187 0.3356
vn 0.0349 -0.4160 0.9087
vn 0.3966 -0.0269 0.9176
vn 0.1657 -0.1625 0.9727
vn 0.1947 -0.3426 0.9191
vn 0.3536 -0.1661 0.9205
vn -0.2247 0.0393 0.9736
vn -0.0383 0.2256 0.9735
vn -0.0162 0.0169 0.9997
vn -0.1506 0.0933 0.9842
vn -0.0924 0.1515 0.9841
vn -0.5161 0.0695 0.8537
vn -0.0681 0.5171 0.8532
vn -0.3832 0.2170 0.8978
vn -0.2156 0.3844 0.8976
vn -0.6355 0.1015 0.7654
vn -0.9471 0.1222 0.2967
vn -0.1216 0.9088 0.3992
vn -0.0960 0.6333 0.7679
vn -0.7626 0.1456 0.6302
vn -0.5186 0.3175 0.7939
vn -0.6385 0.4218 0.6438
vn -0.8197 0.4828 0.3083
vn -0.8750 0.1336 0.4653
vn -0.7232 0.4501 0.5238
vn -0.1312 0.8386 0.5287
vn -0.4718 0.8025 0.3652
vn -0.4547 0.7037 0.5460
vn -0.3142 0.5195 0.7946
vn -0.1430 0.7410 0.6561
vn -0.4251 0.6270 0.6528
vn -0.8230 0.0840 0.5618
vn -0.0825 0.8267 0.5565
vn -0.0266 0.0267 0.9993
vn -0.6698 0.3673 0.6453
vn -0.5777 0.1145 0.8082
vn -0.4867 0.3064 0.8181
vn -0.1204 0.5805 0.8053
vn -0.3677 0.6690 0.6459
vn -0.3211 0.4755 0.8190
vn -0.2152 0.0810 0.9732
vn -0.0857 0.2117 0.9736
vn -0.2408 0.2230 0.9446
vn -0.8036 0.1083 0.5852
vn -0.1012 0.7881 0.6072
vn -0.6594 0.3834 0.6467
vn -0.3770 0.6572 0.6526
vn -0.0200 0.2982 0.9543
vn -0.2775 0.0219 0.9605
vn -0.1654 0.1666 0.9721
vn -0.1308 0.2698 0.9540
vn -0.2603 0.1324 0.9564
vn -0.9879 0.1077 -0.1118
vn -0.0366 0.0370 -0.9986
vn -0.1039 0.9824 -0.1555
vn -0.7339 0.2211 -0.6422
vn -0.8274 0.4948 -0.2658
vn -0.5678 0.4730 -0.6737
vn -0.1152 0.2580 -0.9593
vn -0.2669 0.1094 -0.9575
vn -0.2972 0.2841 -0.9116
vn -0.4900 0.8246 -0.2827
vn -0.2221 0.7176 -0.6601
vn -0.4791 0.5580 -0.6776
vn -0.9792 0.1440 -0.1428
vn -0.1444 0.9792 -0.1429
vn -0.1430 0.1430 -0.9793
vn -0.8590 0.4992 -0.1136
vn -0.8590 0.1142 -0.4990
vn -0.7884 0.4355 -0.4346
vn -0.1145 0.8590 -0.4990
vn -0.4995 0.8588 -0.1136
vn -0.4358 0.7882 -0.4346
vn -0.4993 0.1136 -0.8589
vn -0.1137 0.4993 -0.8589
vn -0.4355 0.4354 -0.7879
vn -0.1328 0.9911 -0.0011
vn -0.9912 0.1323 -0.0011
vn -0.5007 0.8656 -0.0024
vn -0.8658 0.5004 -0.0024
vn 0.0002 0.1499 -0.9887
vn -0.0016 0.9932 -0.1163
vn -0.0007 0.5954 -0.8035
vn -0.0014 0.9110 -0.4123
vt 0.000000 0.000000
s 1
g Plane_Frame
usemtl Frame
f 21/1/21 24/1/24 23/1/23
f 24/1/24 25/1/25 23/1/23
f 25/1/25 22/1/22 23/1/23
f 29/1/29 30/1/30 26/1/26
f 29/1/29 34/1/34 31/1/31
f 32/1/32 33/1/33 27/1/27
f 36/1/36 34/1/34 32/1/32
f 35/1/35 36/1/36 28/1/28
f 30/1/30 37/1/37 35/1/35
f 31/1/31 34/1/34 37/1/37
f 65/1/65 66/1/66 62/1/62
f 69/1/69 67/1/67 65/1/65
f 63/1/63 70/1/70 69/1/69
f 68/1/68 73/1/73 70/1/70
f 71/1/71 72/1/72 64/1/64
f 66/1/66 73/1/73 71/1/71
f 67/1/67 70/1/70 73/1/73
f 77/1/77 78/1/78 74/1/74
f 81/1/81 79/1/79 77/1/77
f 80/1/80 81/1/81 75/1/75
f 80/1/80 85/1/85 82/1/82
f 83/1/83 84/1/84 76/1/76
f 78/1/78 85/1/85 83/1/83
f 79/1/79 82/1/82 85/1/85
f 90/1/90 95/1/95 94/1/94
f 93/1/93 98/1/98 95/1/95
f 96/1/96 97/1/97 91/1/91
f 100/1/100 98/1/98 96/1/96
f 99/1/99 100/1/100 92/1/92
f 94/1/94 101/1/101 99/1/99
f 95/1/95 98/1/98 101/1/101
f 102/1/102 105/1/105 104/1/104
f 105/1/105 106/1/106 104/1/104
f 106/1/106 103/1/103 104/1/104
f 107/1/107 110/1/110 109/1/109
f 110/1/110 111/1/111 109/1/109
f 111/1/111 108/1/108 109/1/109
f 120/1/120 121/1/121 116/1/116
f 120/1/120 125/1/125 122/1/122
f 123/1/123 124/1/124 117/1/117
f 123/1/123 128/1/128 125/1/125
f 126/1/126 127/1/127 118/1/118
f 130/1/130 128/1/128 126/1/126
f 129/1/129 130/1/130 119/1/119
f 129/1/129 122/1/122 131/1/131
f 125/1/125 131/1/131 122/1/122
f 139/1/139 140/1/140 136/1/136
f 139/1/139 144/1/144 141/1/141
f 142/1/142 143/1/143 137/1/137
f 146/1/146 144/1/144 142/1/142
f 145/1/145 146/1/146 138/1/138
f 145/1/145 141/1/141 147/1/147
f 141/1/141 144/1/144 147/1/147
f 151/1/151 152/1/152 148/1/148
f 151/1/151 156/1/156 153/1/153
f 154/1/154 155/1/155 149/1/149
f 154/1/154 159/1/159 156/1/156
f 157/1/157 158/1/158 150/1/150
f 152/1/152 159/1/159 157/1/157
f 153/1/153 156/1/156 159/1/159
f 168/1/168 171/1/171 170/1/170
f 171/1/171 172/1/172 170/1/170
f 172/1/172 169/1/169 170/1/170
f 176/1/176 177/1/177 173/1/173
f 176/1/176 181/1/181 178/1/178
f 179/1/179 180/1/180 174/1/174
f 179/1/179 184/1/184 181/1/181
f 182/1/182 183/1/183 175/1/175
f 177/1/177 184/1/184 182/1/182
f 178/1/178 181/1/181 184/1/184
f 188/1/188 189/1/189 185/1/185
f 188/1/188 193/1/193 190/1/190
f 191/1/191 192/1/192 186/1/186
f 191/1/191 196/1/196 193/1/193
f 194/1/194 195/1/195 187/1/187
f 189/1/189 196/1/196 194/1/194
f 190/1/190 193/1/193 196/1/196
f 208/1/208 209/1/209 205/1/205
f 212/1/212 210/1/210 208/1/208
f 206/1/206 213/1/213 212/1/212
f 211/1/211 216/1/216 213/1/213
f 214/1/214 215/1/215 207/1/207
f 214/1/214 210/1/210 216/1/216
f 210/1/210 213/1/213 216/1/216
f 224/1/224 225/1/225 221/1/221
f 224/1/224 229/1/229 226/1/226
f 227/1/227 228/1/228 222/1/222
f 227/1/227 232/1/232 229/1/229
f 230/1/230 231/1/231 223/1/223
f 225/1/225 232/1/232 230/1/230
f 226/1/226 229/1/229 232/1/232
f 240/1/240 241/1/241 237/1/237
f 240/1/240 245/1/245 242/1/242
f 243/1/243 244/1/244 238/1/238
f 243/1/243 248/1/248 245/1/245
f 246/1/246 247/1/247 239/1/239
f 241/1/241 248/1/248 246/1/246
f 242/1/242 245/1/245 248/1/248
f 253/1/253 256/1/256 255/1/255
f 256/1/256 257/1/257 255/1/255
f 257/1/257 254/1/254 255/1/255
f 261/1/261 262/1/262 258/1/258
f 261/1/261 266/1/266 263/1/263
f 264/1/264 265/1/265 259/1/259
f 268/1/268 266/1/266 264/1/264
f 267/1/267 268/1/268 260/1/260
f 267/1/267 263/1/263 269/1/269
f 263/1/263 266/1/266 269/1/269
f 297/1/297 298/1/298 294/1/294
f 301/1/301 299/1/299 297/1/297
f 295/1/295 302/1/302 301/1/301
f 300/1/300 305/1/305 302/1/302
f 303/1/303 304/1/304 296/1/296
f 303/1/303 299/1/299 305/1/305
f 299/1/299 302/1/302 305/1/305
f 309/1/309 310/1/310 306/1/306
f 309/1/309 314/1/314 311/1/311
f 312/1/312 313/1/313 307/1/307
f 312/1/312 317/1/317 314/1/314
f 315/1/315 316/1/316 308/1/308
f 310/1/310 317/1/317 315/1/315
f 311/1/311 314/1/314 317/1/317
f 322/1/322 325/1/325 324/1/324
f 325/1/325 326/1/326 324/1/324
f 326/1/326 323/1/323 324/1/324
f 327/1/327 330/1/330 329/1/329
f 330/1/330 331/1/331 329/1/329
f 331/1/331 328/1/328 329/1/329
f 340/1/340 341/1/341 336/1/336
f 340/1/340 345/1/345 342/1/342
f 343/1/343 344/1/344 337/1/337
f 347/1/347 345/1/345 343/1/343
f 346/1/346 347/1/347 338/1/338
f 350/1/350 348/1/348 346/1/346
f 349/1/349 350/1/350 339/1/339
f 341/1/341 351/1/351 349/1/349
f 342/1/342 348/1/348 351/1/351
f 355/1/355 356/1/356 352/1/352
f 359/1/359 357/1/357 355/1/355
f 358/1/358 359/1/359 353/1/353
f 358/1/358 363/1/363 360/1/360
f 361/1/361 362/1/362 354/1/354
f 356/1/356 363/1/363 361/1/361
f 357/1/357 360/1/360 363/1/363
f 368/1/368 371/1/371 370/1/370
f 371/1/371 372/1/372 370/1/370
f 372/1/372 369/1/369 370/1/370
f 376/1/376 377/1/377 373/1/373
f 376/1/376 381/1/381 378/1/378
f 379/1/379 380/1/380 374/1/374
f 379/1/379 384/1/384 381/1/381
f 382/1/382 383/1/383 375/1/375
f 377/1/377 384/1/384 382/1/382
f 378/1/378 381/1/381 384/1/384
f 388/1/388 389/1/389 385/1/385
f 388/1/388 393/1/393 390/1/390
f 391/1/391 392/1/392 386/1/386
f 395/1/395 393/1/393 391/1/391
f 394/1/394 395/1/395 387/1/387
f 394/1/394 390/1/390 396/1/396
f 390/1/390 393/1/393 396/1/396
f 409/1/409 412/1/412 411/1/411
f 412/1/412 413/1/413 411/1/411
f 413/1/413 410/1/410 411/1/411
f 417/1/417 418/1/418 414/1/414
f 417/1/417 422/1/422 419/1/419
f 420/1/420 421/1/421 415/1/415
f 420/1/420 425/1/425 422/1/422
f 423/1/423 424/1/424 416/1/416
f 418/1/418 425/1/425 423/1/423
f 419/1/419 422/1/422 425/1/425
f 453/1/453 454/1/454 450/1/450
f 453/1/453 458/1/458 455/1/455
f 456/1/456 457/1/457 451/1/451
f 460/1/460 458/1/458 456/1/456
f 452/1/452 461/1/461 460/1/460
f 459/1/459 455/1/455 461/1/461
f 455/1/455 458/1/458 461/1/461
f 465/1/465 466/1/466 462/1/462
f 465/1/465 470/1/470 467/1/467
f 468/1/468 469/1/469 463/1/463
f 472/1/472 470/1/470 468/1/468
f 471/1/471 472/1/472 464/1/464
f 466/1/466 473/1/473 471/1/471
f 467/1/467 470/1/470 473/1/473
f 481/1/481 482/1/482 478/1/478
f 485/1/485 483/1/483 481/1/481
f 479/1/479 486/1/486 485/1/485
f 484/1/484 489/1/489 486/1/486
f 487/1/487 488/1/488 480/1/480
f 482/1/482 489/1/489 487/1/487
f 483/1/483 486/1/486 489/1/489
f 490/1/490 493/1/493 492/1/492
f 493/1/493 494/1/494 492/1/492
f 494/1/494 491/1/491 492/1/492
f 495/1/495 498/1/498 497/1/497
f 498/1/498 499/1/499 497/1/497
f 499/1/499 496/1/496 497/1/497
f 508/1/508 509/1/509 504/1/504
f 512/1/512 510/1/510 508/1/508
f 511/1/511 512/1/512 505/1/505
f 511/1/511 516/1/516 513/1/513
f 514/1/514 515/1/515 506/1/506
f 518/1/518 516/1/516 514/1/514
f 517/1/517 518/1/518 507/1/507
f 509/1/509 519/1/519 517/1/517
f 513/1/513 519/1/519 510/1/510
f 527/1/527 528/1/528 524/1/524
f 531/1/531 529/1/529 527/1/527
f 530/1/530 531/1/531 525/1/525
f 530/1/530 535/1/535 532/1/532
f 533/1/533 534/1/534 526/1/526
f 528/1/528 535/1/535 533/1/533
f 529/1/529 532/1/532 535/1/535
f 539/1/539 540/1/540 536/1/536
f 539/1/539 544/1/544 541/1/541
f 542/1/542 543/1/543 537/1/537
f 546/1/546 544/1/544 542/1/542
f 545/1/545 546/1/546 538/1/538
f 540/1/540 547/1/547 545/1/545
f 541/1/541 544/1/544 547/1/547
f 556/1/556 559/1/559 558/1/558
f 559/1/559 560/1/560 558/1/558
f 560/1/560 557/1/557 558/1/558
f 564/1/564 565/1/565 561/1/561
f 564/1/564 569/1/569 566/1/566
f 567/1/567 568/1/568 562/1/562
f 571/1/571 569/1/569 567/1/567
f 570/1/570 571/1/571 563/1/563
f 565/1/565 572/1/572 570/1/570
f 566/1/566 569/1/569 572/1/572
f 576/1/576 577/1/577 573/1/573
f 580/1/580 578/1/578 576/1/576
f 579/1/579 580/1/580 574/1/574
f 579/1/579 584/1/584 581/1/581
f 582/1/582 583/1/583 575/1/575
f 577/1/577 584/1/584 582/1/582
f 578/1/578 581/1/581 584/1/584
f 600/1/600 601/1/601 597/1/597
f 600/1/600 605/1/605 602/1/602
f 603/1/603 604/1/604 598/1/598
f 607/1/607 605/1/605 603/1/603
f 599/1/599 608/1/608 607/1/607
f 606/1/606 602/1/602 608/1/608
f 602/1/602 605/1/605 608/1/608
f 616/1/616 617/1/617 613/1/613
f 616/1/616 621/1/621 618/1/618
f 619/1/619 620/1/620 614/1/614
f 619/1/619 624/1/624 621/1/621
f 622/1/622 623/1/623 615/1/615
f 617/1/617 624/1/624 622/1/622
f 618/1/618 621/1/621 624/1/624
f 632/1/632 633/1/633 629/1/629
f 632/1/632 637/1/637 634/1/634
f 635/1/635 636/1/636 630/1/630
f 639/1/639 637/1/637 635/1/635
f 638/1/638 639/1/639 631/1/631
f 638/1/638 634/1/634 640/1/640
f 634/1/634 637/1/637 640/1/640
f 645/1/645 648/1/648 647/1/647
f 648/1/648 649/1/649 647/1/647
f 649/1/649 646/1/646 647/1/647
f 653/1/653 654/1/654 650/1/650
f 653/1/653 658/1/658 655/1/655
f 656/1/656 657/1/657 651/1/651
f 660/1/660 658/1/658 656/1/656
f 659/1/659 660/1/660 652/1/652
f 659/1/659 655/1/655 661/1/661
f 655/1/655 658/1/658 661/1/661
f 689/1/689 690/1/690 686/1/686
f 693/1/693 691/1/691 689/1/689
f 687/1/687 694/1/694 693/1/693
f 692/1/692 697/1/697 694/1/694
f 695/1/695 696/1/696 688/1/688
f 695/1/695 691/1/691 697/1/697
f 691/1/691 694/1/694 697/1/697
f 701/1/701 702/1/702 698/1/698
f 701/1/701 706/1/706 703/1/703
f 704/1/704 705/1/705 699/1/699
f 704/1/704 709/1/709 706/1/706
f 707/1/707 708/1/708 700/1/700
f 702/1/702 709/1/709 707/1/707
f 703/1/703 706/1/706 709/1/709
f 714/1/714 717/1/717 716/1/716
f 717/1/717 718/1/718 716/1/716
f 718/1/718 715/1/715 716/1/716
f 719/1/719 722/1/722 721/1/721
f 722/1/722 723/1/723 721/1/721
f 723/1/723 720/1/720 721/1/721
f 732/1/732 733/1/733 728/1/728
f 732/1/732 737/1/737 734/1/734
f 735/1/735 736/1/736 729/1/729
f 739/1/739 737/1/737 735/1/735
f 738/1/738 739/1/739 730/1/730
f 742/1/742 740/1/740 738/1/738
f 741/1/741 742/1/742 731/1/731
f 733/1/733 743/1/743 741/1/741
f 734/1/734 740/1/740 743/1/743
f 747/1/747 748/1/748 744/1/744
f 751/1/751 749/1/749 747/1/747
f 750/1/750 751/1/751 745/1/745
f 750/1/750 755/1/755 752/1/752
f 753/1/753 754/1/754 746/1/746
f 748/1/748 755/1/755 753/1/753
f 749/1/749 752/1/752 755/1/755
f 760/1/760 763/1/763 762/1/762
f 763/1/763 764/1/764 762/1/762
f 764/1/764 761/1/761 762/1/762
f 768/1/768 769/1/769 765/1/765
f 768/1/768 773/1/773 770/1/770
f 771/1/771 772/1/772 766/1/766
f 775/1/775 773/1/773 771/1/771
f 774/1/774 775/1/775 767/1/767
f 774/1/774 770/1/770 776/1/776
f 770/1/770 773/1/773 776/1/776
f 780/1/780 781/1/781 777/1/777
f 780/1/780 785/1/785 782/1/782
f 783/1/783 784/1/784 778/1/778
f 787/1/787 785/1/785 783/1/783
f 786/1/786 787/1/787 779/1/779
f 786/1/786 782/1/782 788/1/788
f 782/1/782 785/1/785 788/1/788
f 39/1/39 44/1/44 41/1/41
f 44/1/44 40/1/40 41/1/41
f 45/1/45 38/1/38 40/1/40
f 18/1/18 41/1/41 20/1/20
f 20/1/20 40/1/40 19/1/19
f 40/1/40 17/1/17 19/1/19
f 21/1/21 20/1/20 24/1/24
f 20/1/20 25/1/25 24/1/24
f 19/1/19 22/1/22 25/1/25
f 13/1/13 30/1/30 15/1/15
f 15/1/15 35/1/35 16/1/16
f 35/1/35 14/1/14 16/1/16
f 42/1/42 48/1/48 44/1/44
f 48/1/48 45/1/45 44/1/44
f 49/1/49 43/1/43 45/1/45
f 46/1/46 52/1/52 48/1/48
f 52/1/52 49/1/49 48/1/48
f 53/1/53 47/1/47 49/1/49
f 50/1/50 56/1/56 52/1/52
f 52/1/52 57/1/57 53/1/53
f 57/1/57 51/1/51 53/1/53
f 54/1/54 60/1/60 56/1/56
f 56/1/56 61/1/61 57/1/57
f 61/1/61 55/1/55 57/1/57
f 58/1/58 66/1/66 60/1/60
f 60/1/60 71/1/71 61/1/61
f 71/1/71 59/1/59 61/1/61
f 74/1/74 88/1/88 77/1/77
f 77/1/77 89/1/89 81/1/81
f 89/1/89 75/1/75 81/1/81
f 86/1/86 94/1/94 88/1/88
f 88/1/88 99/1/99 89/1/89
f 89/1/89 92/1/92 87/1/87
f 103/1/103 93/1/93 90/1/90
f 106/1/106 97/1/97 93/1/93
f 105/1/105 91/1/91 97/1/97
f 107/1/107 114/1/114 110/1/110
f 114/1/114 111/1/111 110/1/110
f 115/1/115 108/1/108 111/1/111
f 112/1/112 121/1/121 114/1/114
f 121/1/121 115/1/115 114/1/114
f 129/1/129 113/1/113 115/1/115
f 117/1/117 134/1/134 123/1/123
f 134/1/134 127/1/127 123/1/123
f 135/1/135 118/1/118 127/1/127
f 132/1/132 140/1/140 134/1/134
f 140/1/140 135/1/135 134/1/134
f 145/1/145 133/1/133 135/1/135
f 148/1/148 162/1/162 151/1/151
f 162/1/162 155/1/155 151/1/151
f 163/1/163 149/1/149 155/1/155
f 160/1/160 166/1/166 162/1/162
f 166/1/166 163/1/163 162/1/162
f 167/1/167 161/1/161 163/1/163
f 164/1/164 172/1/172 166/1/166
f 172/1/172 167/1/167 166/1/166
f 171/1/171 165/1/165 167/1/167
f 186/1/186 176/1/176 173/1/173
f 192/1/192 180/1/180 176/1/176
f 188/1/188 174/1/174 180/1/180
f 218/1/218 228/1/228 220/1/220
f 228/1/228 219/1/219 220/1/220
f 224/1/224 217/1/217 219/1/219
f 237/1/237 179/1/179 174/1/174
f 179/1/179 246/1/246 183/1/183
f 246/1/246 175/1/175 183/1/183
f 91/1/91 209/1/209 96/1/96
f 96/1/96 214/1/214 100/1/100
f 100/1/100 207/1/207 92/1/92
f 137/1/137 231/1/231 142/1/142
f 142/1/142 227/1/227 146/1/146
f 146/1/146 222/1/222 138/1/138
f 270/1/270 277/1/277 275/1/275
f 277/1/277 273/1/273 276/1/276
f 276/1/276 271/1/271 274/1/274
f 250/1/250 267/1/267 260/1/260
f 252/1/252 262/1/262 267/1/267
f 262/1/262 249/1/249 258/1/258
f 275/1/275 281/1/281 279/1/279
f 277/1/277 280/1/280 281/1/281
f 280/1/280 274/1/274 278/1/278
f 279/1/279 285/1/285 283/1/283
f 281/1/281 284/1/284 285/1/285
f 284/1/284 278/1/278 282/1/282
f 283/1/283 289/1/289 287/1/287
f 285/1/285 288/1/288 289/1/289
f 288/1/288 282/1/282 286/1/286
f 287/1/287 293/1/293 291/1/291
f 289/1/289 292/1/292 293/1/293
f 292/1/292 286/1/286 290/1/290
f 291/1/291 303/1/303 296/1/296
f 303/1/303 292/1/292 298/1/298
f 298/1/298 290/1/290 294/1/294
f 307/1/307 321/1/321 319/1/319
f 313/1/313 320/1/320 321/1/321
f 320/1/320 306/1/306 318/1/318
f 328/1/328 335/1/335 333/1/333
f 331/1/331 334/1/334 335/1/335
f 334/1/334 327/1/327 332/1/332
f 333/1/333 349/1/349 339/1/339
f 335/1/335 341/1/341 349/1/349
f 341/1/341 332/1/332 336/1/336
f 353/1/353 367/1/367 365/1/365
f 367/1/367 355/1/355 366/1/366
f 366/1/366 352/1/352 364/1/364
f 397/1/397 392/1/392 399/1/399
f 392/1/392 400/1/400 399/1/399
f 388/1/388 398/1/398 400/1/400
f 427/1/427 432/1/432 429/1/429
f 432/1/432 428/1/428 429/1/429
f 433/1/433 426/1/426 428/1/428
f 406/1/406 429/1/429 408/1/408
f 429/1/429 407/1/407 408/1/408
f 428/1/428 405/1/405 407/1/407
f 409/1/409 408/1/408 412/1/412
f 408/1/408 413/1/413 412/1/412
f 407/1/407 410/1/410 413/1/413
f 415/1/415 403/1/403 401/1/401
f 421/1/421 404/1/404 403/1/403
f 417/1/417 402/1/402 404/1/404
f 430/1/430 436/1/436 432/1/432
f 436/1/436 433/1/433 432/1/432
f 437/1/437 431/1/431 433/1/433
f 434/1/434 440/1/440 436/1/436
f 440/1/440 437/1/437 436/1/436
f 441/1/441 435/1/435 437/1/437
f 438/1/438 444/1/444 440/1/440
f 444/1/444 441/1/441 440/1/440
f 445/1/445 439/1/439 441/1/441
f 442/1/442 448/1/448 444/1/444
f 448/1/448 445/1/445 444/1/444
f 449/1/449 443/1/443 445/1/445
f 446/1/446 457/1/457 448/1/448
f 457/1/457 449/1/449 448/1/448
f 453/1/453 447/1/447 449/1/449
f 464/1/464 476/1/476 471/1/471
f 471/1/471 477/1/477 466/1/466
f 477/1/477 462/1/462 466/1/466
f 474/1/474 485/1/485 476/1/476
f 476/1/476 481/1/481 477/1/477
f 477/1/477 478/1/478 475/1/475
f 491/1/491 484/1/484 479/1/479
f 494/1/494 488/1/488 484/1/484
f 493/1/493 480/1/480 488/1/488
f 495/1/495 502/1/502 498/1/498
f 502/1/502 499/1/499 498/1/498
f 503/1/503 496/1/496 499/1/499
f 500/1/500 512/1/512 502/1/502
f 512/1/512 503/1/503 502/1/502
f 508/1/508 501/1/501 503/1/503
f 506/1/506 522/1/522 514/1/514
f 522/1/522 518/1/518 514/1/514
f 523/1/523 507/1/507 518/1/518
f 520/1/520 531/1/531 522/1/522
f 522/1/522 527/1/527 523/1/523
f 527/1/527 521/1/521 523/1/523
f 538/1/538 550/1/550 545/1/545
f 545/1/545 551/1/551 540/1/540
f 551/1/551 536/1/536 540/1/540
f 548/1/548 554/1/554 550/1/550
f 550/1/550 555/1/555 551/1/551
f 555/1/555 549/1/549 551/1/551
f 552/1/552 560/1/560 554/1/554
f 554/1/554 559/1/559 555/1/555
f 559/1/559 553/1/553 555/1/555
f 563/1/563 580/1/580 570/1/570
f 570/1/570 576/1/576 565/1/565
f 565/1/565 573/1/573 561/1/561
f 452/1/452 300/1/300 295/1/295
f 460/1/460 304/1/304 300/1/300
f 456/1/456 296/1/296 304/1/304
f 464/1/464 312/1/312 307/1/307
f 472/1/472 316/1/316 312/1/312
f 468/1/468 308/1/308 316/1/316
f 375/1/375 583/1/583 382/1/382
f 382/1/382 579/1/579 377/1/377
f 377/1/377 574/1/574 373/1/373
f 386/1/386 588/1/588 391/1/391
f 391/1/391 587/1/587 395/1/395
f 395/1/395 585/1/585 387/1/387
f 260/1/260 420/1/420 415/1/415
f 268/1/268 424/1/424 420/1/420
f 264/1/264 416/1/416 424/1/424
f 506/1/506 346/1/346 338/1/338
f 515/1/515 350/1/350 346/1/346
f 511/1/511 339/1/339 350/1/350
f 353/1/353 546/1/546 358/1/358
f 358/1/358 542/1/542 362/1/362
f 362/1/362 537/1/537 354/1/354
f 202/1/202 273/1/273 204/1/204
f 273/1/273 203/1/203 204/1/204
f 272/1/272 201/1/201 203/1/203
f 253/1/253 204/1/204 256/1/256
f 256/1/256 203/1/203 257/1/257
f 203/1/203 254/1/254 257/1/257
f 207/1/207 320/1/320 318/1/318
f 215/1/215 321/1/321 320/1/320
f 211/1/211 319/1/319 321/1/321
f 205/1/205 326/1/326 208/1/208
f 208/1/208 325/1/325 212/1/212
f 212/1/212 322/1/322 206/1/206
f 337/1/337 220/1/220 343/1/343
f 343/1/343 219/1/219 347/1/347
f 347/1/347 217/1/217 338/1/338
f 364/1/364 235/1/235 366/1/366
f 366/1/366 236/1/236 367/1/367
f 236/1/236 365/1/365 367/1/367
f 233/1/233 372/1/372 235/1/235
f 372/1/372 236/1/236 235/1/235
f 371/1/371 234/1/234 236/1/236
f 374/1/374 240/1/240 237/1/237
f 380/1/380 244/1/244 240/1/240
f 376/1/376 238/1/238 244/1/244
f 63/1/63 301/1/301 68/1/68
f 68/1/68 297/1/297 72/1/72
f 72/1/72 294/1/294 64/1/64
f 75/1/75 310/1/310 80/1/80
f 80/1/80 315/1/315 84/1/84
f 84/1/84 308/1/308 76/1/76
f 187/1/187 383/1/383 194/1/194
f 194/1/194 379/1/379 189/1/189
f 189/1/189 374/1/374 185/1/185
f 385/1/385 199/1/199 197/1/197
f 389/1/389 200/1/200 199/1/199
f 394/1/394 198/1/198 200/1/200
f 258/1/258 36/1/36 261/1/261
f 261/1/261 32/1/32 265/1/265
f 265/1/265 27/1/27 259/1/259
f 118/1/118 344/1/344 126/1/126
f 126/1/126 340/1/340 130/1/130
f 130/1/130 336/1/336 119/1/119
f 149/1/149 356/1/356 154/1/154
f 154/1/154 361/1/361 158/1/158
f 158/1/158 354/1/354 150/1/150
f 238/1/238 571/1/571 243/1/243
f 243/1/243 567/1/567 247/1/247
f 247/1/247 562/1/562 239/1/239
f 223/1/223 534/1/534 230/1/230
f 230/1/230 530/1/530 225/1/225
f 225/1/225 525/1/525 221/1/221
f 610/1/610 620/1/620 612/1/612
f 612/1/612 616/1/616 611/1/611
f 616/1/616 609/1/609 611/1/611
f 662/1/662 669/1/669 667/1/667
f 664/1/664 668/1/668 669/1/669
f 668/1/668 663/1/663 666/1/666
f 642/1/642 659/1/659 652/1/652
f 644/1/644 654/1/654 659/1/659
f 643/1/643 650/1/650 654/1/654
f 667/1/667 673/1/673 671/1/671
f 669/1/669 672/1/672 673/1/673
f 672/1/672 666/1/666 670/1/670
f 671/1/671 677/1/677 675/1/675
f 673/1/673 676/1/676 677/1/677
f 676/1/676 670/1/670 674/1/674
f 675/1/675 681/1/681 679/1/679
f 677/1/677 680/1/680 681/1/681
f 680/1/680 674/1/674 678/1/678
f 679/1/679 685/1/685 683/1/683
f 681/1/681 684/1/684 685/1/685
f 684/1/684 678/1/678 682/1/682
f 683/1/683 695/1/695 688/1/688
f 685/1/685 690/1/690 695/1/695
f 690/1/690 682/1/682 686/1/686
f 699/1/699 713/1/713 711/1/711
f 705/1/705 712/1/712 713/1/713
f 712/1/712 698/1/698 710/1/710
f 720/1/720 727/1/727 725/1/725
f 723/1/723 726/1/726 727/1/727
f 726/1/726 719/1/719 724/1/724
f 725/1/725 741/1/741 731/1/731
f 727/1/727 733/1/733 741/1/741
f 733/1/733 724/1/724 728/1/728
f 745/1/745 759/1/759 757/1/757
f 759/1/759 747/1/747 758/1/758
f 758/1/758 744/1/744 756/1/756
f 789/1/789 784/1/784 791/1/791
f 784/1/784 792/1/792 791/1/791
f 780/1/780 790/1/790 792/1/792
f 778/1/778 796/1/796 783/1/783
f 783/1/783 795/1/795 787/1/787
f 787/1/787 793/1/793 779/1/779
f 594/1/594 665/1/665 596/1/596
f 665/1/665 595/1/595 596/1/596
f 664/1/664 593/1/593 595/1/595
f 645/1/645 596/1/596 648/1/648
f 648/1/648 595/1/595 649/1/649
f 595/1/595 646/1/646 649/1/649
f 597/1/597 712/1/712 710/1/710
f 601/1/601 713/1/713 712/1/712
f 606/1/606 711/1/711 713/1/713
f 598/1/598 718/1/718 603/1/603
f 603/1/603 717/1/717 607/1/607
f 607/1/607 714/1/714 599/1/599
f 729/1/729 612/1/612 735/1/735
f 735/1/735 611/1/611 739/1/739
f 739/1/739 609/1/609 730/1/730
f 756/1/756 627/1/627 758/1/758
f 758/1/758 628/1/628 759/1/759
f 628/1/628 757/1/757 759/1/759
f 625/1/625 764/1/764 627/1/627
f 764/1/764 628/1/628 627/1/627
f 763/1/763 626/1/626 628/1/628
f 765/1/765 638/1/638 631/1/631
f 769/1/769 633/1/633 638/1/638
f 774/1/774 629/1/629 633/1/633
f 777/1/777 591/1/591 589/1/589
f 781/1/781 592/1/592 591/1/591
f 786/1/786 590/1/590 592/1/592
f 631/1/631 564/1/564 561/1/561
f 564/1/564 635/1/635 568/1/568
f 635/1/635 562/1/562 568/1/568
f 480/1/480 604/1/604 487/1/487
f 487/1/487 600/1/600 482/1/482
f 482/1/482 597/1/597 478/1/478
f 526/1/526 623/1/623 533/1/533
f 533/1/533 619/1/619 528/1/528
f 528/1/528 614/1/614 524/1/524
f 63/1/63 692/1/692 687/1/687
f 69/1/69 696/1/696 692/1/692
f 65/1/65 688/1/688 696/1/696
f 74/1/74 704/1/704 699/1/699
f 78/1/78 708/1/708 704/1/704
f 83/1/83 700/1/700 708/1/708
f 766/1/766 195/1/195 771/1/771
f 771/1/771 191/1/191 775/1/775
f 775/1/775 186/1/186 767/1/767
f 652/1/652 29/1/29 26/1/26
f 660/1/660 33/1/33 29/1/29
f 656/1/656 27/1/27 33/1/33
f 117/1/117 738/1/738 730/1/730
f 124/1/124 742/1/742 738/1/738
f 120/1/120 731/1/731 742/1/742
f 745/1/745 152/1/152 750/1/750
f 750/1/750 157/1/157 754/1/754
f 754/1/754 150/1/150 746/1/746
f 452/1/452 693/1/693 459/1/459
f 459/1/459 689/1/689 454/1/454
f 454/1/454 686/1/686 450/1/450
f 462/1/462 702/1/702 465/1/465
f 465/1/465 707/1/707 469/1/469
f 469/1/469 700/1/700 463/1/463
f 575/1/575 772/1/772 582/1/582
f 582/1/582 768/1/768 577/1/577
f 577/1/577 765/1/765 573/1/573
f 650/1/650 418/1/418 653/1/653
f 653/1/653 423/1/423 657/1/657
f 657/1/657 416/1/416 651/1/651
f 507/1/507 736/1/736 517/1/517
f 517/1/517 732/1/732 509/1/509
f 509/1/509 728/1/728 504/1/504
f 536/1/536 748/1/748 539/1/539
f 539/1/539 753/1/753 543/1/543
f 543/1/543 746/1/746 537/1/537
f 629/1/629 177/1/177 632/1/632
f 632/1/632 182/1/182 636/1/636
f 636/1/636 175/1/175 630/1/630
f 615/1/615 143/1/143 622/1/622
f 622/1/622 139/1/139 617/1/617
f 617/1/617 136/1/136 613/1/613
f 642/1/642 26/1/26 13/1/13
f 28/1/28 249/1/249 14/1/14
f 662/1/662 18/1/18 593/1/593
f 38/1/38 202/1/202 17/1/17
f 646/1/646 18/1/18 21/1/21
f 22/1/22 202/1/202 253/1/253
f 651/1/651 647/1/647 23/1/23
f 27/1/27 23/1/23 255/1/255
f 662/1/662 42/1/42 39/1/39
f 43/1/43 271/1/271 38/1/38
f 47/1/47 274/1/274 43/1/43
f 667/1/667 46/1/46 42/1/42
f 51/1/51 278/1/278 47/1/47
f 671/1/671 50/1/50 46/1/46
f 55/1/55 282/1/282 51/1/51
f 675/1/675 54/1/54 50/1/50
f 59/1/59 286/1/286 55/1/55
f 679/1/679 58/1/58 54/1/54
f 64/1/64 290/1/290 59/1/59
f 683/1/683 62/1/62 58/1/58
f 76/1/76 295/1/295 63/1/63
f 700/1/700 63/1/63 687/1/687
f 87/1/87 306/1/306 75/1/75
f 699/1/699 86/1/86 74/1/74
f 92/1/92 318/1/318 87/1/87
f 711/1/711 90/1/90 86/1/86
f 102/1/102 205/1/205 91/1/91
f 714/1/714 90/1/90 599/1/599
f 104/1/104 4/1/4 323/1/323
f 716/1/716 1/1/1 103/1/103
f 721/1/721 107/1/107 1/1/1
f 113/1/113 327/1/327 108/1/108
f 109/1/109 327/1/327 4/1/4
f 725/1/725 107/1/107 720/1/720
f 119/1/119 332/1/332 113/1/113
f 731/1/731 112/1/112 725/1/725
f 133/1/133 337/1/337 118/1/118
f 730/1/730 132/1/132 117/1/117
f 133/1/133 222/1/222 218/1/218
f 613/1/613 132/1/132 609/1/609
f 150/1/150 223/1/223 137/1/137
f 746/1/746 137/1/137 615/1/615
f 161/1/161 352/1/352 149/1/149
f 757/1/757 148/1/148 745/1/745
f 161/1/161 233/1/233 364/1/364
f 757/1/757 164/1/164 160/1/160
f 168/1/168 233/1/233 165/1/165
f 760/1/760 164/1/164 626/1/626
f 170/1/170 5/1/5 369/1/369
f 762/1/762 2/1/2 169/1/169
f 11/1/11 175/1/175 2/1/2
f 174/1/174 374/1/374 237/1/237
f 2/1/2 239/1/239 5/1/5
f 767/1/767 173/1/173 629/1/629
f 187/1/187 387/1/387 375/1/375
f 779/1/779 187/1/187 766/1/766
f 197/1/197 398/1/398 385/1/385
f 254/1/254 406/1/406 409/1/409
f 270/1/270 406/1/406 201/1/201
f 322/1/322 479/1/479 206/1/206
f 319/1/319 479/1/479 474/1/474
f 221/1/221 520/1/520 217/1/217
f 338/1/338 520/1/520 506/1/506
f 354/1/354 526/1/526 223/1/223
f 368/1/368 552/1/552 234/1/234
f 365/1/365 552/1/552 548/1/548
f 373/1/373 563/1/563 238/1/238
f 5/1/5 562/1/562 7/1/7
f 260/1/260 401/1/401 250/1/250
f 259/1/259 255/1/255 411/1/411
f 275/1/275 427/1/427 270/1/270
f 279/1/279 430/1/430 275/1/275
f 283/1/283 434/1/434 279/1/279
f 287/1/287 438/1/438 283/1/283
f 291/1/291 442/1/442 287/1/287
f 296/1/296 446/1/446 291/1/291
f 308/1/308 452/1/452 295/1/295
f 307/1/307 474/1/474 464/1/464
f 324/1/324 6/1/6 491/1/491
f 329/1/329 495/1/495 6/1/6
f 333/1/333 495/1/495 328/1/328
f 333/1/333 505/1/505 500/1/500
f 353/1/353 548/1/548 538/1/538
f 370/1/370 7/1/7 557/1/557
f 387/1/387 575/1/575 375/1/375
f 397/1/397 586/1/586 386/1/386
f 414/1/414 641/1/641 402/1/402
f 426/1/426 594/1/594 405/1/405
f 410/1/410 594/1/594 645/1/645
f 416/1/416 411/1/411 647/1/647
f 431/1/431 663/1/663 426/1/426
f 435/1/435 666/1/666 431/1/431
f 439/1/439 670/1/670 435/1/435
f 443/1/443 674/1/674 439/1/439
f 447/1/447 678/1/678 443/1/443
f 450/1/450 682/1/682 447/1/447
f 463/1/463 687/1/687 452/1/452
f 475/1/475 698/1/698 462/1/462
f 478/1/478 710/1/710 475/1/475
f 490/1/490 598/1/598 480/1/480
f 492/1/492 10/1/10 715/1/715
f 497/1/497 719/1/719 10/1/10
f 501/1/501 719/1/719 496/1/496
f 501/1/501 728/1/728 724/1/724
f 521/1/521 729/1/729 507/1/507
f 521/1/521 614/1/614 610/1/610
f 537/1/537 615/1/615 526/1/526
f 536/1/536 756/1/756 744/1/744
f 549/1/549 625/1/625 756/1/756
f 556/1/556 625/1/625 553/1/553
f 558/1/558 11/1/11 761/1/761
f 7/1/7 630/1/630 11/1/11
f 561/1/561 765/1/765 631/1/631
f 590/1/590 766/1/766 575/1/575
f 589/1/589 790/1/790 777/1/777
f 789/1/789 794/1/794 778/1/778
f 29/1/29 31/1/31 30/1/30
f 29/1/29 33/1/33 34/1/34
f 32/1/32 34/1/34 33/1/33
f 36/1/36 37/1/37 34/1/34
f 35/1/35 37/1/37 36/1/36
f 30/1/30 31/1/31 37/1/37
f 65/1/65 67/1/67 66/1/66
f 69/1/69 70/1/70 67/1/67
f 63/1/63 68/1/68 70/1/70
f 68/1/68 72/1/72 73/1/73
f 71/1/71 73/1/73 72/1/72
f 66/1/66 67/1/67 73/1/73
f 77/1/77 79/1/79 78/1/78
f 81/1/81 82/1/82 79/1/79
f 80/1/80 82/1/82 81/1/81
f 80/1/80 84/1/84 85/1/85
f 83/1/83 85/1/85 84/1/84
f 78/1/78 79/1/79 85/1/85
f 90/1/90 93/1/93 95/1/95
f 93/1/93 97/1/97 98/1/98
f 96/1/96 98/1/98 97/1/97
f 100/1/100 101/1/101 98/1/98
f 99/1/99 101/1/101 100/1/100
f 94/1/94 95/1/95 101/1/101
f 120/1/120 122/1/122 121/1/121
f 120/1/120 124/1/124 125/1/125
f 123/1/123 125/1/125 124/1/124
f 123/1/123 127/1/127 128/1/128
f 126/1/126 128/1/128 127/1/127
f 130/1/130 131/1/131 128/1/128
f 129/1/129 131/1/131 130/1/130
f 129/1/129 121/1/121 122/1/122
f 125/1/125 128/1/128 131/1/131
f 139/1/139 141/1/141 140/1/140
f 139/1/139 143/1/143 144/1/144
f 142/1/142 144/1/144 143/1/143
f 146/1/146 147/1/147 144/1/144
f 145/1/145 147/1/147 146/1/146
f 145/1/145 140/1/140 141/1/141
f 151/1/151 153/1/153 152/1/152
f 151/1/151 155/1/155 156/1/156
f 154/1/154 156/1/156 155/1/155
f 154/1/154 158/1/158 159/1/159
f 157/1/157 159/1/159 158/1/158
f 152/1/152 153/1/153 159/1/159
f 176/1/176 178/1/178 177/1/177
f 176/1/176 180/1/180 181/1/181
f 179/1/179 181/1/181 180/1/180
f 179/1/179 183/1/183 184/1/184
f 182/1/182 184/1/184 183/1/183
f 177/1/177 178/1/178 184/1/184
f 188/1/188 190/1/190 189/1/189
f 188/1/188 192/1/192 193/1/193
f 191/1/191 193/1/193 192/1/192
f 191/1/191 195/1/195 196/1/196
f 194/1/194 196/1/196 195/1/195
f 189/1/189 190/1/190 196/1/196
f 208/1/208 210/1/210 209/1/209
f 212/1/212 213/1/213 210/1/210
f 206/1/206 211/1/211 213/1/213
f 211/1/211 215/1/215 216/1/216
f 214/1/214 216/1/216 215/1/215
f 214/1/214 209/1/209 210/1/210
f 224/1/224 226/1/226 225/1/225
f 224/1/224 228/1/228 229/1/229
f 227/1/227 229/1/229 228/1/228
f 227/1/227 231/1/231 232/1/232
f 230/1/230 232/1/232 231/1/231
f 225/1/225 226/1/226 232/1/232
f 240/1/240 242/1/242 241/1/241
f 240/1/240 244/1/244 245/1/245
f 243/1/243 245/1/245 244/1/244
f 243/1/243 247/1/247 248/1/248
f 246/1/246 248/1/248 247/1/247
f 241/1/241 242/1/242 248/1/248
f 261/1/261 263/1/263 262/1/262
f 261/1/261 265/1/265 266/1/266
f 264/1/264 266/1/266 265/1/265
f 268/1/268 269/1/269 266/1/266
f 267/1/267 269/1/269 268/1/268
f 267/1/267 262/1/262 263/1/263
f 297/1/297 299/1/299 298/1/298
f 301/1/301 302/1/302 299/1/299
f 295/1/295 300/1/300 302/1/302
f 300/1/300 304/1/304 305/1/305
f 303/1/303 305/1/305 304/1/304
f 303/1/303 298/1/298 299/1/299
f 309/1/309 311/1/311 310/1/310
f 309/1/309 313/1/313 314/1/314
f 312/1/312 314/1/314 313/1/313
f 312/1/312 316/1/316 317/1/317
f 315/1/315 317/1/317 316/1/316
f 310/1/310 311/1/311 317/1/317
f 340/1/340 342/1/342 341/1/341
f 340/1/340 344/1/344 345/1/345
f 343/1/343 345/1/345 344/1/344
f 347/1/347 348/1/348 345/1/345
f 346/1/346 348/1/348 347/1/347
f 350/1/350 351/1/351 348/1/348
f 349/1/349 351/1/351 350/1/350
f 341/1/341 342/1/342 351/1/351
f 342/1/342 345/1/345 348/1/348
f 355/1/355 357/1/357 356/1/356
f 359/1/359 360/1/360 357/1/357
f 358/1/358 360/1/360 359/1/359
f 358/1/358 362/1/362 363/1/363
f 361/1/361 363/1/363 362/1/362
f 356/1/356 357/1/357 363/1/363
f 376/1/376 378/1/378 377/1/377
f 376/1/376 380/1/380 381/1/381
f 379/1/379 381/1/381 380/1/380
f 379/1/379 383/1/383 384/1/384
f 382/1/382 384/1/384 383/1/383
f 377/1/377 378/1/378 384/1/384
f 388/1/388 390/1/390 389/1/389
f 388/1/388 392/1/392 393/1/393
f 391/1/391 393/1/393 392/1/392
f 395/1/395 396/1/396 393/1/393
f 394/1/394 396/1/396 395/1/395
f 394/1/394 389/1/389 390/1/390
f 417/1/417 419/1/419 418/1/418
f 417/1/417 421/1/421 422/1/422
f 420/1/420 422/1/422 421/1/421
f 420/1/420 424/1/424 425/1/425
f 423/1/423 425/1/425 424/1/424
f 418/1/418 419/1/419 425/1/425
f 453/1/453 455/1/455 454/1/454
f 453/1/453 457/1/457 458/1/458
f 456/1/456 458/1/458 457/1/457
f 460/1/460 461/1/461 458/1/458
f 452/1/452 459/1/459 461/1/461
f 459/1/459 454/1/454 455/1/455
f 465/1/465 467/1/467 466/1/466
f 465/1/465 469/1/469 470/1/470
f 468/1/468 470/1/470 469/1/469
f 472/1/472 473/1/473 470/1/470
f 471/1/471 473/1/473 472/1/472
f 466/1/466 467/1/467 473/1/473
f 481/1/481 483/1/483 482/1/482
f 485/1/485 486/1/486 483/1/483
f 479/1/479 484/1/484 486/1/486
f 484/1/484 488/1/488 489/1/489
f 487/1/487 489/1/489 488/1/488
f 482/1/482 483/1/483 489/1/489
f 508/1/508 510/1/510 509/1/509
f 512/1/512 513/1/513 510/1/510
f 511/1/511 513/1/513 512/1/512
f 511/1/511 515/1/515 516/1/516
f 514/1/514 516/1/516 515/1/515
f 518/1/518 519/1/519 516/1/516
f 517/1/517 519/1/519 518/1/518
f 509/1/509 510/1/510 519/1/519
f 513/1/513 516/1/516 519/1/519
f 527/1/527 529/1/529 528/1/528
f 531/1/531 532/1/532 529/1/529
f 530/1/530 532/1/532 531/1/531
f 530/1/530 534/1/534 535/1/535
f 533/1/533 535/1/535 534/1/534
f 528/1/528 529/1/529 535/1/535
f 539/1/539 541/1/541 540/1/540
f 539/1/539 543/1/543 544/1/544
f 542/1/542 544/1/544 543/1/543
f 546/1/546 547/1/547 544/1/544
f 545/1/545 547/1/547 546/1/546
f 540/1/540 541/1/541 547/1/547
f 564/1/564 566/1/566 565/1/565
f 564/1/564 568/1/568 569/1/569
f 567/1/567 569/1/569 568/1/568
f 571/1/571 572/1/572 569/1/569
f 570/1/570 572/1/572 571/1/571
f 565/1/565 566/1/566 572/1/572
f 576/1/576 578/1/578 577/1/577
f 580/1/580 581/1/581 578/1/578
f 579/1/579 581/1/581 580/1/580
f 579/1/579 583/1/583 584/1/584
f 582/1/582 584/1/584 583/1/583
f 577/1/577 578/1/578 584/1/584
f 600/1/600 602/1/602 601/1/601
f 600/1/600 604/1/604 605/1/605
f 603/1/603 605/1/605 604/1/604
f 607/1/607 608/1/608 605/1/605
f 599/1/599 606/1/606 608/1/608
f 606/1/606 601/1/601 602/1/602
f 616/1/616 618/1/618 617/1/617
f 616/1/616 620/1/620 621/1/621
f 619/1/619 621/1/621 620/1/620
f 619/1/619 623/1/623 624/1/624
f 622/1/622 624/1/624 623/1/623
f 617/1/617 618/1/618 624/1/624
f 632/1/632 634/1/634 633/1/633
f 632/1/632 636/1/636 637/1/637
f 635/1/635 637/1/637 636/1/636
f 639/1/639 640/1/640 637/1/637
f 638/1/638 640/1/640 639/1/639
f 638/1/638 633/1/633 634/1/634
f 653/1/653 655/1/655 654/1/654
f 653/1/653 657/1/657 658/1/658
f 656/1/656 658/1/658 657/1/657
f 660/1/660 661/1/661 658/1/658
f 659/1/659 661/1/661 660/1/660
f 659/1/659 654/1/654 655/1/655
f 689/1/689 691/1/691 690/1/690
f 693/1/693 694/1/694 691/1/691
f 687/1/687 692/1/692 694/1/694
f 692/1/692 696/1/696 697/1/697
f 695/1/695 697/1/697 696/1/696
f 695/1/695 690/1/690 691/1/691
f 701/1/701 703/1/703 702/1/702
f 701/1/701 705/1/705 706/1/706
f 704/1/704 706/1/706 705/1/705
f 704/1/704 708/1/708 709/1/709
f 707/1/707 709/1/709 708/1/708
f 702/1/702 703/1/703 709/1/709
f 732/1/732 734/1/734 733/1/733
f 732/1/732 736/1/736 737/1/737
f 735/1/735 737/1/737 736/1/736
f 739/1/739 740/1/740 737/1/737
f 738/1/738 740/1/740 739/1/739
f 742/1/742 743/1/743 740/1/740
f 741/1/741 743/1/743 742/1/742
f 733/1/733 734/1/734 743/1/743
f 734/1/734 737/1/737 740/1/740
f 747/1/747 749/1/749 748/1/748
f 751/1/751 752/1/752 749/1/749
f 750/1/750 752/1/752 751/1/751
f 750/1/750 754/1/754 755/1/755
f 753/1/753 755/1/755 754/1/754
f 748/1/748 749/1/749 755/1/755
f 768/1/768 770/1/770 769/1/769
f 768/1/768 772/1/772 773/1/773
f 771/1/771 773/1/773 772/1/772
f 775/1/775 776/1/776 773/1/773
f 774/1/774 776/1/776 775/1/775
f 774/1/774 769/1/769 770/1/770
f 780/1/780 782/1/782 781/1/781
f 780/1/780 784/1/784 785/1/785
f 783/1/783 785/1/785 784/1/784
f 787/1/787 788/1/788 785/1/785
f 786/1/786 788/1/788 787/1/787
f 786/1/786 781/1/781 782/1/782
f 39/1/39 42/1/42 44/1/44
f 44/1/44 45/1/45 40/1/40
f 45/1/45 43/1/43 38/1/38
f 18/1/18 39/1/39 41/1/41
f 20/1/20 41/1/41 40/1/40
f 40/1/40 38/1/38 17/1/17
f 21/1/21 18/1/18 20/1/20
f 20/1/20 19/1/19 25/1/25
f 19/1/19 17/1/17 22/1/22
f 13/1/13 26/1/26 30/1/30
f 15/1/15 30/1/30 35/1/35
f 35/1/35 28/1/28 14/1/14
f 42/1/42 46/1/46 48/1/48
f 48/1/48 49/1/49 45/1/45
f 49/1/49 47/1/47 43/1/43
f 46/1/46 50/1/50 52/1/52
f 52/1/52 53/1/53 49/1/49
f 53/1/53 51/1/51 47/1/47
f 50/1/50 54/1/54 56/1/56
f 52/1/52 56/1/56 57/1/57
f 57/1/57 55/1/55 51/1/51
f 54/1/54 58/1/58 60/1/60
f 56/1/56 60/1/60 61/1/61
f 61/1/61 59/1/59 55/1/55
f 58/1/58 62/1/62 66/1/66
f 60/1/60 66/1/66 71/1/71
f 71/1/71 64/1/64 59/1/59
f 74/1/74 86/1/86 88/1/88
f 77/1/77 88/1/88 89/1/89
f 89/1/89 87/1/87 75/1/75
f 86/1/86 90/1/90 94/1/94
f 88/1/88 94/1/94 99/1/99
f 89/1/89 99/1/99 92/1/92
f 103/1/103 106/1/106 93/1/93
f 106/1/106 105/1/105 97/1/97
f 105/1/105 102/1/102 91/1/91
f 107/1/107 112/1/112 114/1/114
f 114/1/114 115/1/115 111/1/111
f 115/1/115 113/1/113 108/1/108
f 112/1/112 116/1/116 121/1/121
f 121/1/121 129/1/129 115/1/115
f 129/1/129 119/1/119 113/1/113
f 117/1/117 132/1/132 134/1/134
f 134/1/134 135/1/135 127/1/127
f 135/1/135 133/1/133 118/1/118
f 132/1/132 136/1/136 140/1/140
f 140/1/140 145/1/145 135/1/135
f 145/1/145 138/1/138 133/1/133
f 148/1/148 160/1/160 162/1/162
f 162/1/162 163/1/163 155/1/155
f 163/1/163 161/1/161 149/1/149
f 160/1/160 164/1/164 166/1/166
f 166/1/166 167/1/167 163/1/163
f 167/1/167 165/1/165 161/1/161
f 164/1/164 169/1/169 172/1/172
f 172/1/172 171/1/171 167/1/167
f 171/1/171 168/1/168 165/1/165
f 186/1/186 192/1/192 176/1/176
f 192/1/192 188/1/188 180/1/180
f 188/1/188 185/1/185 174/1/174
f 218/1/218 222/1/222 228/1/228
f 228/1/228 224/1/224 219/1/219
f 224/1/224 221/1/221 217/1/217
f 237/1/237 241/1/241 179/1/179
f 179/1/179 241/1/241 246/1/246
f 246/1/246 239/1/239 175/1/175
f 91/1/91 205/1/205 209/1/209
f 96/1/96 209/1/209 214/1/214
f 100/1/100 214/1/214 207/1/207
f 137/1/137 223/1/223 231/1/231
f 142/1/142 231/1/231 227/1/227
f 146/1/146 227/1/227 222/1/222
f 270/1/270 272/1/272 277/1/277
f 277/1/277 272/1/272 273/1/273
f 276/1/276 273/1/273 271/1/271
f 250/1/250 252/1/252 267/1/267
f 252/1/252 251/1/251 262/1/262
f 262/1/262 251/1/251 249/1/249
f 275/1/275 277/1/277 281/1/281
f 277/1/277 276/1/276 280/1/280
f 280/1/280 276/1/276 274/1/274
f 279/1/279 281/1/281 285/1/285
f 281/1/281 280/1/280 284/1/284
f 284/1/284 280/1/280 278/1/278
f 283/1/283 285/1/285 289/1/289
f 285/1/285 284/1/284 288/1/288
f 288/1/288 284/1/284 282/1/282
f 287/1/287 289/1/289 293/1/293
f 289/1/289 288/1/288 292/1/292
f 292/1/292 288/1/288 286/1/286
f 291/1/291 293/1/293 303/1/303
f 303/1/303 293/1/293 292/1/292
f 298/1/298 292/1/292 290/1/290
f 307/1/307 313/1/313 321/1/321
f 313/1/313 309/1/309 320/1/320
f 320/1/320 309/1/309 306/1/306
f 328/1/328 331/1/331 335/1/335
f 331/1/331 330/1/330 334/1/334
f 334/1/334 330/1/330 327/1/327
f 333/1/333 335/1/335 349/1/349
f 335/1/335 334/1/334 341/1/341
f 341/1/341 334/1/334 332/1/332
f 353/1/353 359/1/359 367/1/367
f 367/1/367 359/1/359 355/1/355
f 366/1/366 355/1/355 352/1/352
f 397/1/397 386/1/386 392/1/392
f 392/1/392 388/1/388 400/1/400
f 388/1/388 385/1/385 398/1/398
f 427/1/427 430/1/430 432/1/432
f 432/1/432 433/1/433 428/1/428
f 433/1/433 431/1/431 426/1/426
f 406/1/406 427/1/427 429/1/429
f 429/1/429 428/1/428 407/1/407
f 428/1/428 426/1/426 405/1/405
f 409/1/409 406/1/406 408/1/408
f 408/1/408 407/1/407 413/1/413
f 407/1/407 405/1/405 410/1/410
f 415/1/415 421/1/421 403/1/403
f 421/1/421 417/1/417 404/1/404
f 417/1/417 414/1/414 402/1/402
f 430/1/430 434/1/434 436/1/436
f 436/1/436 437/1/437 433/1/433
f 437/1/437 435/1/435 431/1/431
f 434/1/434 438/1/438 440/1/440
f 440/1/440 441/1/441 437/1/437
f 441/1/441 439/1/439 435/1/435
f 438/1/438 442/1/442 444/1/444
f 444/1/444 445/1/445 441/1/441
f 445/1/445 443/1/443 439/1/439
f 442/1/442 446/1/446 448/1/448
f 448/1/448 449/1/449 445/1/445
f 449/1/449 447/1/447 443/1/443
f 446/1/446 451/1/451 457/1/457
f 457/1/457 453/1/453 449/1/449
f 453/1/453 450/1/450 447/1/447
f 464/1/464 474/1/474 476/1/476
f 471/1/471 476/1/476 477/1/477
f 477/1/477 475/1/475 462/1/462
f 474/1/474 479/1/479 485/1/485
f 476/1/476 485/1/485 481/1/481
f 477/1/477 481/1/481 478/1/478
f 491/1/491 494/1/494 484/1/484
f 494/1/494 493/1/493 488/1/488
f 493/1/493 490/1/490 480/1/480
f 495/1/495 500/1/500 502/1/502
f 502/1/502 503/1/503 499/1/499
f 503/1/503 501/1/501 496/1/496
f 500/1/500 505/1/505 512/1/512
f 512/1/512 508/1/508 503/1/503
f 508/1/508 504/1/504 501/1/501
f 506/1/506 520/1/520 522/1/522
f 522/1/522 523/1/523 518/1/518
f 523/1/523 521/1/521 507/1/507
f 520/1/520 525/1/525 531/1/531
f 522/1/522 531/1/531 527/1/527
f 527/1/527 524/1/524 521/1/521
f 538/1/538 548/1/548 550/1/550
f 545/1/545 550/1/550 551/1/551
f 551/1/551 549/1/549 536/1/536
f 548/1/548 552/1/552 554/1/554
f 550/1/550 554/1/554 555/1/555
f 555/1/555 553/1/553 549/1/549
f 552/1/552 557/1/557 560/1/560
f 554/1/554 560/1/560 559/1/559
f 559/1/559 556/1/556 553/1/553
f 563/1/563 574/1/574 580/1/580
f 570/1/570 580/1/580 576/1/576
f 565/1/565 576/1/576 573/1/573
f 452/1/452 460/1/460 300/1/300
f 460/1/460 456/1/456 304/1/304
f 456/1/456 451/1/451 296/1/296
f 464/1/464 472/1/472 312/1/312
f 472/1/472 468/1/468 316/1/316
f 468/1/468 463/1/463 308/1/308
f 375/1/375 575/1/575 583/1/583
f 382/1/382 583/1/583 579/1/579
f 377/1/377 579/1/579 574/1/574
f 386/1/386 586/1/586 588/1/588
f 391/1/391 588/1/588 587/1/587
f 395/1/395 587/1/587 585/1/585
f 260/1/260 268/1/268 420/1/420
f 268/1/268 264/1/264 424/1/424
f 264/1/264 259/1/259 416/1/416
f 506/1/506 515/1/515 346/1/346
f 515/1/515 511/1/511 350/1/350
f 511/1/511 505/1/505 339/1/339
f 353/1/353 538/1/538 546/1/546
f 358/1/358 546/1/546 542/1/542
f 362/1/362 542/1/542 537/1/537
f 202/1/202 271/1/271 273/1/273
f 273/1/273 272/1/272 203/1/203
f 272/1/272 270/1/270 201/1/201
f 253/1/253 202/1/202 204/1/204
f 256/1/256 204/1/204 203/1/203
f 203/1/203 201/1/201 254/1/254
f 207/1/207 215/1/215 320/1/320
f 215/1/215 211/1/211 321/1/321
f 211/1/211 206/1/206 319/1/319
f 205/1/205 323/1/323 326/1/326
f 208/1/208 326/1/326 325/1/325
f 212/1/212 325/1/325 322/1/322
f 337/1/337 218/1/218 220/1/220
f 343/1/343 220/1/220 219/1/219
f 347/1/347 219/1/219 217/1/217
f 364/1/364 233/1/233 235/1/235
f 366/1/366 235/1/235 236/1/236
f 236/1/236 234/1/234 365/1/365
f 233/1/233 369/1/369 372/1/372
f 372/1/372 371/1/371 236/1/236
f 371/1/371 368/1/368 234/1/234
f 374/1/374 380/1/380 240/1/240
f 380/1/380 376/1/376 244/1/244
f 376/1/376 373/1/373 238/1/238
f 63/1/63 295/1/295 301/1/301
f 68/1/68 301/1/301 297/1/297
f 72/1/72 297/1/297 294/1/294
f 75/1/75 306/1/306 310/1/310
f 80/1/80 310/1/310 315/1/315
f 84/1/84 315/1/315 308/1/308
f 187/1/187 375/1/375 383/1/383
f 194/1/194 383/1/383 379/1/379
f 189/1/189 379/1/379 374/1/374
f 385/1/385 389/1/389 199/1/199
f 389/1/389 394/1/394 200/1/200
f 394/1/394 387/1/387 198/1/198
f 258/1/258 28/1/28 36/1/36
f 261/1/261 36/1/36 32/1/32
f 265/1/265 32/1/32 27/1/27
f 118/1/118 337/1/337 344/1/344
f 126/1/126 344/1/344 340/1/340
f 130/1/130 340/1/340 336/1/336
f 149/1/149 352/1/352 356/1/356
f 154/1/154 356/1/356 361/1/361
f 158/1/158 361/1/361 354/1/354
f 238/1/238 563/1/563 571/1/571
f 243/1/243 571/1/571 567/1/567
f 247/1/247 567/1/567 562/1/562
f 223/1/223 526/1/526 534/1/534
f 230/1/230 534/1/534 530/1/530
f 225/1/225 530/1/530 525/1/525
f 610/1/610 614/1/614 620/1/620
f 612/1/612 620/1/620 616/1/616
f 616/1/616 613/1/613 609/1/609
f 662/1/662 664/1/664 669/1/669
f 664/1/664 665/1/665 668/1/668
f 668/1/668 665/1/665 663/1/663
f 642/1/642 644/1/644 659/1/659
f 644/1/644 643/1/643 654/1/654
f 643/1/643 641/1/641 650/1/650
f 667/1/667 669/1/669 673/1/673
f 669/1/669 668/1/668 672/1/672
f 672/1/672 668/1/668 666/1/666
f 671/1/671 673/1/673 677/1/677
f 673/1/673 672/1/672 676/1/676
f 676/1/676 672/1/672 670/1/670
f 675/1/675 677/1/677 681/1/681
f 677/1/677 676/1/676 680/1/680
f 680/1/680 676/1/676 674/1/674
f 679/1/679 681/1/681 685/1/685
f 681/1/681 680/1/680 684/1/684
f 684/1/684 680/1/680 678/1/678
f 683/1/683 685/1/685 695/1/695
f 685/1/685 684/1/684 690/1/690
f 690/1/690 684/1/684 682/1/682
f 699/1/699 705/1/705 713/1/713
f 705/1/705 701/1/701 712/1/712
f 712/1/712 701/1/701 698/1/698
f 720/1/720 723/1/723 727/1/727
f 723/1/723 722/1/722 726/1/726
f 726/1/726 722/1/722 719/1/719
f 725/1/725 727/1/727 741/1/741
f 727/1/727 726/1/726 733/1/733
f 733/1/733 726/1/726 724/1/724
f 745/1/745 751/1/751 759/1/759
f 759/1/759 751/1/751 747/1/747
f 758/1/758 747/1/747 744/1/744
f 789/1/789 778/1/778 784/1/784
f 784/1/784 780/1/780 792/1/792
f 780/1/780 777/1/777 790/1/790
f 778/1/778 794/1/794 796/1/796
f 783/1/783 796/1/796 795/1/795
f 787/1/787 795/1/795 793/1/793
f 594/1/594 663/1/663 665/1/665
f 665/1/665 664/1/664 595/1/595
f 664/1/664 662/1/662 593/1/593
f 645/1/645 594/1/594 596/1/596
f 648/1/648 596/1/596 595/1/595
f 595/1/595 593/1/593 646/1/646
f 597/1/597 601/1/601 712/1/712
f 601/1/601 606/1/606 713/1/713
f 606/1/606 599/1/599 711/1/711
f 598/1/598 715/1/715 718/1/718
f 603/1/603 718/1/718 717/1/717
f 607/1/607 717/1/717 714/1/714
f 729/1/729 610/1/610 612/1/612
f 735/1/735 612/1/612 611/1/611
f 739/1/739 611/1/611 609/1/609
f 756/1/756 625/1/625 627/1/627
f 758/1/758 627/1/627 628/1/628
f 628/1/628 626/1/626 757/1/757
f 625/1/625 761/1/761 764/1/764
f 764/1/764 763/1/763 628/1/628
f 763/1/763 760/1/760 626/1/626
f 765/1/765 769/1/769 638/1/638
f 769/1/769 774/1/774 633/1/633
f 774/1/774 767/1/767 629/1/629
f 777/1/777 781/1/781 591/1/591
f 781/1/781 786/1/786 592/1/592
f 786/1/786 779/1/779 590/1/590
f 631/1/631 639/1/639 564/1/564
f 564/1/564 639/1/639 635/1/635
f 635/1/635 630/1/630 562/1/562
f 480/1/480 598/1/598 604/1/604
f 487/1/487 604/1/604 600/1/600
f 482/1/482 600/1/600 597/1/597
f 526/1/526 615/1/615 623/1/623
f 533/1/533 623/1/623 619/1/619
f 528/1/528 619/1/619 614/1/614
f 63/1/63 69/1/69 692/1/692
f 69/1/69 65/1/65 696/1/696
f 65/1/65 62/1/62 688/1/688
f 74/1/74 78/1/78 704/1/704
f 78/1/78 83/1/83 708/1/708
f 83/1/83 76/1/76 700/1/700
f 766/1/766 187/1/187 195/1/195
f 771/1/771 195/1/195 191/1/191
f 775/1/775 191/1/191 186/1/186
f 652/1/652 660/1/660 29/1/29
f 660/1/660 656/1/656 33/1/33
f 656/1/656 651/1/651 27/1/27
f 117/1/117 124/1/124 738/1/738
f 124/1/124 120/1/120 742/1/742
f 120/1/120 116/1/116 731/1/731
f 745/1/745 148/1/148 152/1/152
f 750/1/750 152/1/152 157/1/157
f 754/1/754 157/1/157 150/1/150
f 452/1/452 687/1/687 693/1/693
f 459/1/459 693/1/693 689/1/689
f 454/1/454 689/1/689 686/1/686
f 462/1/462 698/1/698 702/1/702
f 465/1/465 702/1/702 707/1/707
f 469/1/469 707/1/707 700/1/700
f 575/1/575 766/1/766 772/1/772
f 582/1/582 772/1/772 768/1/768
f 577/1/577 768/1/768 765/1/765
f 650/1/650 414/1/414 418/1/418
f 653/1/653 418/1/418 423/1/423
f 657/1/657 423/1/423 416/1/416
f 507/1/507 729/1/729 736/1/736
f 517/1/517 736/1/736 732/1/732
f 509/1/509 732/1/732 728/1/728
f 536/1/536 744/1/744 748/1/748
f 539/1/539 748/1/748 753/1/753
f 543/1/543 753/1/753 746/1/746
f 629/1/629 173/1/173 177/1/177
f 632/1/632 177/1/177 182/1/182
f 636/1/636 182/1/182 175/1/175
f 615/1/615 137/1/137 143/1/143
f 622/1/622 143/1/143 139/1/139
f 617/1/617 139/1/139 136/1/136
f 642/1/642 652/1/652 26/1/26
f 28/1/28 258/1/258 249/1/249
f 662/1/662 39/1/39 18/1/18
f 38/1/38 271/1/271 202/1/202
f 646/1/646 593/1/593 18/1/18
f 22/1/22 17/1/17 202/1/202
f 647/1/647 646/1/646 21/1/21
f 647/1/647 21/1/21 23/1/23
f 23/1/23 27/1/27 651/1/651
f 23/1/23 22/1/22 253/1/253
f 23/1/23 253/1/253 255/1/255
f 255/1/255 259/1/259 27/1/27
f 662/1/662 667/1/667 42/1/42
f 43/1/43 274/1/274 271/1/271
f 47/1/47 278/1/278 274/1/274
f 667/1/667 671/1/671 46/1/46
f 51/1/51 282/1/282 278/1/278
f 671/1/671 675/1/675 50/1/50
f 55/1/55 286/1/286 282/1/282
f 675/1/675 679/1/679 54/1/54
f 59/1/59 290/1/290 286/1/286
f 679/1/679 683/1/683 58/1/58
f 64/1/64 294/1/294 290/1/290
f 683/1/683 688/1/688 62/1/62
f 76/1/76 308/1/308 295/1/295
f 700/1/700 76/1/76 63/1/63
f 87/1/87 318/1/318 306/1/306
f 699/1/699 711/1/711 86/1/86
f 92/1/92 207/1/207 318/1/318
f 711/1/711 599/1/599 90/1/90
f 102/1/102 323/1/323 205/1/205
f 714/1/714 103/1/103 90/1/90
f 323/1/323 102/1/102 104/1/104
f 104/1/104 1/1/1 4/1/4
f 4/1/4 324/1/324 323/1/323
f 103/1/103 714/1/714 716/1/716
f 716/1/716 10/1/10 1/1/1
f 1/1/1 104/1/104 103/1/103
f 1/1/1 10/1/10 721/1/721
f 721/1/721 720/1/720 107/1/107
f 107/1/107 109/1/109 1/1/1
f 113/1/113 332/1/332 327/1/327
f 4/1/4 1/1/1 109/1/109
f 109/1/109 108/1/108 327/1/327
f 327/1/327 329/1/329 4/1/4
f 725/1/725 112/1/112 107/1/107
f 119/1/119 336/1/336 332/1/332
f 731/1/731 116/1/116 112/1/112
f 133/1/133 218/1/218 337/1/337
f 730/1/730 609/1/609 132/1/132
f 133/1/133 138/1/138 222/1/222
f 613/1/613 136/1/136 132/1/132
f 150/1/150 354/1/354 223/1/223
f 746/1/746 150/1/150 137/1/137
f 161/1/161 364/1/364 352/1/352
f 757/1/757 160/1/160 148/1/148
f 161/1/161 165/1/165 233/1/233
f 757/1/757 626/1/626 164/1/164
f 168/1/168 369/1/369 233/1/233
f 760/1/760 169/1/169 164/1/164
f 369/1/369 168/1/168 170/1/170
f 170/1/170 2/1/2 5/1/5
f 5/1/5 370/1/370 369/1/369
f 169/1/169 760/1/760 762/1/762
f 762/1/762 11/1/11 2/1/2
f 2/1/2 170/1/170 169/1/169
f 11/1/11 630/1/630 175/1/175
f 174/1/174 185/1/185 374/1/374
f 2/1/2 175/1/175 239/1/239
f 767/1/767 186/1/186 173/1/173
f 187/1/187 198/1/198 387/1/387
f 779/1/779 793/1/793 187/1/187
f 197/1/197 3/1/3 398/1/398
f 254/1/254 201/1/201 406/1/406
f 270/1/270 427/1/427 406/1/406
f 322/1/322 491/1/491 479/1/479
f 319/1/319 206/1/206 479/1/479
f 221/1/221 525/1/525 520/1/520
f 338/1/338 217/1/217 520/1/520
f 354/1/354 537/1/537 526/1/526
f 368/1/368 557/1/557 552/1/552
f 365/1/365 234/1/234 552/1/552
f 373/1/373 574/1/574 563/1/563
f 5/1/5 239/1/239 562/1/562
f 260/1/260 415/1/415 401/1/401
f 255/1/255 254/1/254 409/1/409
f 255/1/255 409/1/409 411/1/411
f 411/1/411 416/1/416 259/1/259
f 275/1/275 430/1/430 427/1/427
f 279/1/279 434/1/434 430/1/430
f 283/1/283 438/1/438 434/1/434
f 287/1/287 442/1/442 438/1/438
f 291/1/291 446/1/446 442/1/442
f 296/1/296 451/1/451 446/1/446
f 308/1/308 463/1/463 452/1/452
f 307/1/307 319/1/319 474/1/474
f 491/1/491 322/1/322 324/1/324
f 324/1/324 4/1/4 6/1/6
f 6/1/6 492/1/492 491/1/491
f 6/1/6 4/1/4 329/1/329
f 329/1/329 328/1/328 495/1/495
f 495/1/495 497/1/497 6/1/6
f 333/1/333 500/1/500 495/1/495
f 333/1/333 339/1/339 505/1/505
f 353/1/353 365/1/365 548/1/548
f 557/1/557 368/1/368 370/1/370
f 370/1/370 5/1/5 7/1/7
f 7/1/7 558/1/558 557/1/557
f 387/1/387 585/1/585 575/1/575
f 397/1/397 8/1/8 586/1/586
f 414/1/414 650/1/650 641/1/641
f 426/1/426 663/1/663 594/1/594
f 410/1/410 405/1/405 594/1/594
f 411/1/411 410/1/410 645/1/645
f 411/1/411 645/1/645 647/1/647
f 647/1/647 651/1/651 416/1/416
f 431/1/431 666/1/666 663/1/663
f 435/1/435 670/1/670 666/1/666
f 439/1/439 674/1/674 670/1/670
f 443/1/443 678/1/678 674/1/674
f 447/1/447 682/1/682 678/1/678
f 450/1/450 686/1/686 682/1/682
f 463/1/463 700/1/700 687/1/687
f 475/1/475 710/1/710 698/1/698
f 478/1/478 597/1/597 710/1/710
f 490/1/490 715/1/715 598/1/598
f 715/1/715 490/1/490 492/1/492
f 492/1/492 6/1/6 10/1/10
f 10/1/10 716/1/716 715/1/715
f 10/1/10 6/1/6 497/1/497
f 497/1/497 496/1/496 719/1/719
f 719/1/719 721/1/721 10/1/10
f 501/1/501 724/1/724 719/1/719
f 501/1/501 504/1/504 728/1/728
f 521/1/521 610/1/610 729/1/729
f 521/1/521 524/1/524 614/1/614
f 537/1/537 746/1/746 615/1/615
f 536/1/536 549/1/549 756/1/756
f 549/1/549 553/1/553 625/1/625
f 556/1/556 761/1/761 625/1/625
f 761/1/761 556/1/556 558/1/558
f 558/1/558 7/1/7 11/1/11
f 11/1/11 762/1/762 761/1/761
f 7/1/7 562/1/562 630/1/630
f 561/1/561 573/1/573 765/1/765
f 590/1/590 779/1/779 766/1/766
f 589/1/589 9/1/9 790/1/790
f 789/1/789 12/1/12 794/1/794
o Plane.001
v -3.549809 -1.941893 0.000000
v 3.549809 -1.941893 0.000000
v -3.549809 1.941893 0.000000
v 3.549809 1.941893 0.000000
vn -0.0000 -0.0000 1.0000
vt 1.000000 0.000000
vt 0.000000 1.000000
vt 0.000000 0.000000
vt 1.000000 1.000000
s 0
g Plane.001_Picture
usemtl Picture
f 798/2/797 799/3/797 797/4/797
f 798/2/797 800/5/797 799/3/797
